# This file uses centimeters as units for non-parametric coordinates.

mtllib animationGround.mtl
g default
v -31.291050 0.000000 0.242476
v 19.787893 0.000000 0.242476
v 19.787893 0.000000 -149.036438
v -31.291050 0.000000 -149.036438
v 19.787893 0.000000 -298.315399
v -31.291050 0.000000 -298.315399
v 19.787893 0.000000 -447.594391
v -31.291050 0.000000 -447.594391
v 19.787893 0.000000 -596.873352
v -31.291050 0.000000 -596.873352
vt -0.000000 0.000000
vt 1.000000 0.000000
vt 1.000000 1.000000
vt -0.000000 1.000000
vt -0.000000 -0.000000
vt 1.000000 -0.000000
vt 1.000000 1.000000
vt -0.000000 1.000000
vt -0.000000 0.000000
vt 1.000000 0.000000
vt 1.000000 1.000000
vt -0.000000 1.000000
vt -0.000000 0.000000
vt 1.000000 0.000000
vt 1.000000 1.000000
vt -0.000000 1.000000
vn 0.000000 1.000000 0.000000
vn 0.000000 1.000000 0.000000
vn 0.000000 1.000000 0.000000
vn 0.000000 1.000000 0.000000
vn 0.000000 1.000000 0.000000
vn 0.000000 1.000000 0.000000
vn 0.000000 1.000000 0.000000
vn 0.000000 1.000000 0.000000
vn 0.000000 1.000000 0.000000
vn 0.000000 1.000000 0.000000
vn 0.000000 1.000000 0.000000
vn 0.000000 1.000000 0.000000
vn 0.000000 1.000000 0.000000
vn 0.000000 1.000000 0.000000
vn 0.000000 1.000000 0.000000
vn 0.000000 1.000000 0.000000
g Pavement
usemtl animationGround:lambert5SG
f 1/1/1 2/2/2 3/3/3 4/4/4
f 4/5/5 3/6/6 5/7/7 6/8/8
f 6/9/9 5/10/10 7/11/11 8/12/12
f 8/13/13 7/14/14 9/15/15 10/16/16
g default
v -15.359571 0.491679 11.055211
v 5.075001 0.491679 11.055211
v 5.075001 0.491679 -138.223694
v -15.359571 0.491679 -138.223694
v 5.075001 0.491679 -287.502655
v -15.359571 0.491679 -287.502655
v 5.075001 0.491679 -436.781677
v -15.359571 0.491679 -436.781677
v 5.075001 0.491679 -586.060669
v -15.359571 0.491679 -586.060669
vt 0.000000 0.000000
vt 1.000000 0.000000
vt 1.000000 1.000000
vt 0.000000 1.000000
vt 0.000000 0.000000
vt 1.000000 0.000000
vt 1.000000 1.000000
vt 0.000000 1.000000
vt 0.000000 0.000000
vt 1.000000 0.000000
vt 1.000000 1.000000
vt 0.000000 1.000000
vt 0.000000 0.000000
vt 1.000000 0.000000
vt 1.000000 1.000000
vt 0.000000 1.000000
vn 0.000000 1.000000 0.000000
vn 0.000000 1.000000 0.000000
vn 0.000000 1.000000 0.000000
vn 0.000000 1.000000 0.000000
vn 0.000000 1.000000 0.000000
vn 0.000000 1.000000 0.000000
vn 0.000000 1.000000 0.000000
vn 0.000000 1.000000 0.000000
vn 0.000000 1.000000 0.000000
vn 0.000000 1.000000 0.000000
vn 0.000000 1.000000 0.000000
vn 0.000000 1.000000 0.000000
vn 0.000000 1.000000 0.000000
vn 0.000000 1.000000 0.000000
vn 0.000000 1.000000 0.000000
vn 0.000000 1.000000 0.000000
g Road
usemtl animationGround:lambert3SG
f 11/17/17 12/18/18 13/19/19 14/20/20
f 14/21/21 13/22/22 15/23/23 16/24/24
f 16/25/25 15/26/26 17/27/27 18/28/28
f 18/29/29 17/30/30 19/31/31 20/32/32
