# Blender3D v2.52 (sub 0) OBJ File: bible.blend
# www.blender3d.org
o Mesh
v 0.912045 0.377781 -1.000000
v 0.968222 -0.192591 -1.000000
v 0.698049 -0.698049 -1.000000
v 0.192591 -0.968222 -1.000000
v -0.377782 -0.912045 -1.000000
v -0.820819 -0.548453 -1.000000
v -0.987190 0.000001 -1.000000
v -0.820818 0.548454 -1.000000
v -0.469126 0.877675 -1.000000
v 0.000002 0.987190 -1.000000
v 0.548455 0.820818 -1.000000
v 0.000000 0.000000 1.000000
v 0.000000 -0.000000 -0.712392
vn 0.698962 0.573622 0.427094
vn 0.899853 0.088628 0.427094
vn 0.797439 -0.426240 0.427094
vn 0.426240 -0.797440 0.427094
vn -0.088628 -0.899853 0.427094
vn -0.573623 -0.698961 0.427094
vn -0.865273 -0.262477 0.427094
vn -0.865272 0.262478 0.427094
vn -0.615938 0.657980 0.433223
vn -0.204891 0.877689 0.433223
vn 0.262478 0.865272 0.427094
vn -0.084546 -0.278709 -0.956647
vn -0.225140 -0.184767 -0.956647
vn -0.289848 -0.028548 -0.956647
vn -0.256860 0.137295 -0.956647
vn -0.137295 0.256860 -0.956647
vn 0.028548 0.289848 -0.956647
vn 0.184768 0.225140 -0.956647
vn 0.278710 0.084545 -0.956647
vn 0.278709 -0.084546 -0.956647
vn 0.195877 -0.209246 -0.958044
vn 0.065158 -0.279117 -0.958044
usemtl (null)
s off
f 1//1 11//1 12//1
f 2//2 1//2 12//2
f 12//3 3//3 2//3
f 12//4 4//4 3//4
f 12//5 5//5 4//5
f 12//6 6//6 5//6
f 12//7 7//7 6//7
f 12//8 8//8 7//8
f 12//9 9//9 8//9
f 12//10 10//10 9//10
f 12//11 11//11 10//11
f 10//12 11//12 13//12
f 1//13 13//13 11//13
f 1//14 2//14 13//14
f 2//15 3//15 13//15
f 3//16 4//16 13//16
f 4//17 5//17 13//17
f 5//18 6//18 13//18
f 6//19 7//19 13//19
f 7//20 8//20 13//20
f 8//21 9//21 13//21
f 9//22 10//22 13//22
