# Blender3D v2.52 (sub 0) OBJ File: building6.blend
# www.blender3d.org
o Mesh
v 1.495606 0.046489 -1.286055
v 1.495606 0.046490 1.286056
v -1.495606 0.046490 1.286055
v -1.495606 0.046489 -1.286056
v 1.496488 0.883621 1.285026
v -1.496490 0.883235 1.287087
v -0.851909 0.046490 1.286055
v -0.827572 0.883071 1.286504
v 0.935849 0.046490 1.286055
v 0.946401 0.883348 1.284314
v 0.946238 0.883402 0.727745
v -0.827735 0.883125 0.729935
v 1.495607 13.498682 -1.286056
v -1.495606 13.498682 -1.286057
v 1.497848 13.507903 1.283438
v -1.497850 13.502821 1.288673
v -0.838030 13.503901 1.287498
v 0.941821 13.506620 1.284901
v 0.941658 13.506677 0.728331
v -0.838193 13.503956 0.730929
vn 0.999999 -0.001053 0.000000
vn -0.999999 -0.001056 -0.000000
vn -0.000000 -1.000000 0.000000
vn 0.000444 -0.000891 0.999999
vn -0.000642 0.001660 0.999998
vn 0.000615 0.000760 1.000000
vn -0.000156 1.000000 0.000097
vn 0.000000 -0.000000 -1.000000
vn 1.000000 -0.000108 -0.000308
vn -1.000000 -0.000108 -0.000309
vn 0.001323 -0.000102 0.999999
vn 0.000679 0.000040 1.000000
vn -1.000000 -0.000363 0.000294
vn 1.000000 0.000829 -0.000294
vn 0.001347 -0.000062 0.999999
vn -1.000000 -0.000000 -0.000871
vn 1.000000 -0.000000 -0.000872
vn -0.002307 0.999997 0.000102
vn 0.001378 0.999993 -0.003590
vn -0.001637 0.999999 0.000098
vn -0.003082 0.999994 -0.001610
vn -0.000572 0.999994 -0.003277
usemtl (null)
s off
f 2//1 1//1 5//1
f 3//2 6//2 4//2
f 4//3 1//3 7//3
f 7//3 3//3 4//3
f 8//4 6//4 3//4 7//4
f 9//3 1//3 2//3
f 7//3 1//3 9//3
f 5//5 10//5 9//5 2//5
f 10//6 8//6 7//6 9//6
f 8//7 10//7 11//7 12//7
f 13//8 1//8 4//8 14//8
f 5//9 1//9 15//9
f 6//10 16//10 4//10
f 16//11 6//11 8//11 17//11
f 18//12 10//12 5//12 15//12
f 10//13 18//13 19//13 11//13
f 17//14 8//14 12//14 20//14
f 20//15 12//15 11//15 19//15
f 4//16 16//16 14//16
f 1//17 13//17 15//17
f 15//18 19//18 18//18
f 13//19 19//19 15//19
f 16//20 17//20 20//20
f 14//21 16//21 20//21
f 13//22 14//22 20//22 19//22
