# This file uses centimeters as units for non-parametric coordinates.

mtllib building 1.mtl
g default
v -6.193725 18.362291 0.273443
v -2.796658 18.362291 0.273443
v -6.193725 24.042707 0.273442
v -2.796658 24.042707 0.273442
v -6.193725 24.042707 -2.208559
v -2.796658 24.042707 -2.208559
v -6.193725 18.362291 -2.208559
v -2.796658 18.362291 -2.208559
v -5.255301 20.145397 0.141927
v -3.735083 20.145397 0.141927
v -3.735083 22.793095 0.141926
v -5.255301 22.793095 0.141926
v -5.255301 20.145397 -0.084445
v -3.735083 20.145397 -0.084445
v -3.735083 22.793095 -0.084445
v -5.255301 22.793095 -0.084445
v -4.616214 19.997622 0.081305
v -4.379712 19.997622 0.081305
v -4.616214 22.874159 0.081305
v -4.379712 22.874159 0.081305
v -4.616214 22.874159 -0.184326
v -4.379712 22.874159 -0.184326
v -4.616214 19.997622 -0.184326
v -4.379712 19.997622 -0.184326
v -3.522277 21.855282 0.081305
v -3.522277 22.091785 0.081305
v -5.560354 21.855282 0.081305
v -5.560354 22.091785 0.081305
v -5.560354 21.855282 -0.184326
v -5.560354 22.091785 -0.184326
v -3.522277 21.855282 -0.184326
v -3.522277 22.091785 -0.184326
v -2.766437 24.041449 -2.225551
v -2.766437 24.041449 0.277065
v -2.766437 25.007598 -0.974243
v -6.220828 24.041449 -2.225551
v -6.220828 24.041449 0.277065
v -6.220828 25.007598 -0.974243
v -2.766437 24.470583 -0.974243
v -6.220828 24.470583 -0.974243
vt 0.675860 0.365000
vt 0.981466 0.365000
vt 0.477315 0.322797
vt 0.664739 0.322797
vt 0.477315 0.538734
vt 0.664739 0.538734
vt 0.477315 0.754671
vt 0.664739 0.754671
vt 0.477315 0.970608
vt 0.664739 0.970608
vt 0.981466 0.882501
vt 0.675860 0.882501
vt 0.981466 0.365000
vt 0.675860 0.365000
vt 0.135476 0.537356
vt 0.335767 0.537356
vt 0.335767 0.844065
vt 0.135476 0.844065
vt 0.011838 0.330802
vt 0.459406 0.330802
vt 0.335767 0.537356
vt 0.135476 0.537356
vt 0.459406 0.988820
vt 0.335767 0.844065
vt 0.011838 0.988820
vt 0.135476 0.844065
vt 0.219677 0.520238
vt 0.250836 0.520238
vt 0.250836 0.853456
vt 0.219677 0.853456
vt 0.250836 0.853456
vt 0.219677 0.853456
vt 0.250836 0.520238
vt 0.219677 0.520238
vt 0.363804 0.735429
vt 0.363804 0.762825
vt 0.095285 0.762825
vt 0.095285 0.735429
vt 0.095285 0.762825
vt 0.095285 0.735429
vt 0.363804 0.762825
vt 0.363804 0.735429
vt 0.675860 0.882501
vt 0.981466 0.882501
vt 0.675414 0.882387
vt 0.983559 0.882387
vt 0.829486 0.921482
vt 0.829486 0.970405
vt 0.983559 0.882387
vt 0.675414 0.882387
vt 0.853670 0.020462
vt 0.981934 0.020462
vt 0.981934 0.242586
vt 0.853670 0.242586
vt 0.008388 0.009767
vt 0.337823 0.009209
vt 0.338610 0.288413
vt 0.009175 0.288972
vt 0.829486 0.921482
vt 0.829486 0.970405
vt 0.667257 0.008650
vt 0.668045 0.287855
vn 0.000000 0.000000 1.000000
vn 0.000000 0.000000 1.000000
vn 0.000000 0.000000 1.000000
vn 0.000000 0.000000 1.000000
vn 0.000000 1.000000 0.000000
vn 0.000000 1.000000 0.000000
vn 0.000000 1.000000 0.000000
vn 0.000000 1.000000 0.000000
vn 0.000000 0.000000 -1.000000
vn 0.000000 0.000000 -1.000000
vn 0.000000 0.000000 -1.000000
vn 0.000000 0.000000 -1.000000
vn 0.000000 -1.000000 0.000000
vn 0.000000 -1.000000 0.000000
vn 0.000000 -1.000000 0.000000
vn 0.000000 -1.000000 0.000000
vn 1.000000 0.000000 0.000000
vn 1.000000 0.000000 0.000000
vn 1.000000 0.000000 0.000000
vn 1.000000 0.000000 0.000000
vn -1.000000 0.000000 0.000000
vn -1.000000 0.000000 0.000000
vn -1.000000 0.000000 0.000000
vn -1.000000 0.000000 0.000000
vn 0.069610 0.036893 0.996892
vn -0.069610 0.036893 0.996892
vn -0.069610 0.036893 0.996892
vn 0.069610 0.036893 0.996892
vn -0.069658 -0.052532 0.996187
vn -0.069658 -0.052532 0.996187
vn 0.069658 -0.052532 0.996187
vn 0.069658 -0.052532 0.996187
vn 0.000000 1.000000 0.000000
vn 0.000000 1.000000 0.000000
vn 0.000000 1.000000 0.000000
vn 0.000000 1.000000 0.000000
vn -1.000000 -0.000000 0.000000
vn -1.000000 -0.000000 0.000000
vn -1.000000 -0.000000 0.000000
vn -1.000000 -0.000000 0.000000
vn 0.000000 -1.000000 0.000000
vn 0.000000 -1.000000 0.000000
vn 0.000000 -1.000000 0.000000
vn 0.000000 -1.000000 0.000000
vn 1.000000 0.000000 0.000000
vn 1.000000 0.000000 0.000000
vn 1.000000 0.000000 0.000000
vn 1.000000 0.000000 0.000000
vn 0.000000 0.000000 1.000000
vn 0.000000 0.000000 1.000000
vn 0.000000 0.000000 1.000000
vn 0.000000 0.000000 1.000000
vn 0.000000 1.000000 0.000000
vn 0.000000 1.000000 0.000000
vn 0.000000 1.000000 0.000000
vn 0.000000 1.000000 0.000000
vn 0.000000 0.000000 -1.000000
vn 0.000000 0.000000 -1.000000
vn 0.000000 0.000000 -1.000000
vn 0.000000 0.000000 -1.000000
vn 0.000000 -1.000000 0.000000
vn 0.000000 -1.000000 0.000000
vn 0.000000 -1.000000 0.000000
vn 0.000000 -1.000000 0.000000
vn 1.000000 0.000000 0.000000
vn 1.000000 0.000000 0.000000
vn 1.000000 0.000000 0.000000
vn 1.000000 0.000000 0.000000
vn -1.000000 0.000000 0.000000
vn -1.000000 0.000000 0.000000
vn -1.000000 0.000000 0.000000
vn -1.000000 0.000000 0.000000
vn 0.000000 0.000000 1.000000
vn 0.000000 0.000000 1.000000
vn 0.000000 0.000000 1.000000
vn 0.000000 0.000000 1.000000
vn -1.000000 0.000000 0.000000
vn -1.000000 0.000000 0.000000
vn -1.000000 0.000000 0.000000
vn -1.000000 0.000000 0.000000
vn 0.000000 0.000000 -1.000000
vn 0.000000 0.000000 -1.000000
vn 0.000000 0.000000 -1.000000
vn 0.000000 0.000000 -1.000000
vn 1.000000 0.000000 0.000000
vn 1.000000 0.000000 0.000000
vn 1.000000 0.000000 0.000000
vn 1.000000 0.000000 0.000000
vn 0.000000 1.000000 0.000000
vn 0.000000 1.000000 0.000000
vn 0.000000 1.000000 0.000000
vn 0.000000 1.000000 0.000000
vn 0.000000 -1.000000 0.000000
vn 0.000000 -1.000000 0.000000
vn 0.000000 -1.000000 0.000000
vn 0.000000 -1.000000 0.000000
vn 0.000000 -1.000000 0.000000
vn 0.000000 -1.000000 0.000000
vn 0.000000 -1.000000 0.000000
vn 0.000000 -1.000000 0.000000
vn 0.000000 0.791521 0.611142
vn 0.000000 0.791521 0.611142
vn 0.000000 0.791521 0.611142
vn 0.000000 0.791521 0.611142
vn 0.000000 0.791521 -0.611142
vn 0.000000 0.791521 -0.611142
vn 0.000000 0.791521 -0.611142
vn 0.000000 0.791521 -0.611142
vn 1.000000 0.000000 0.000000
vn 1.000000 0.000000 0.000000
vn 1.000000 0.000000 0.000000
vn 1.000000 0.000000 0.000000
vn -1.000000 0.000000 0.000000
vn -1.000000 0.000000 0.000000
vn -1.000000 0.000000 0.000000
vn -1.000000 0.000000 0.000000
g Building_1
usemtl lambert2SG
f 13/15/1 14/16/2 15/17/3 16/18/4
f 3/3/5 4/4/6 6/6/7 5/5/8
f 5/5/9 6/6/10 8/8/11 7/7/12
f 7/7/13 8/8/14 2/10/15 1/9/16
f 2/1/17 8/2/18 6/11/19 4/12/20
f 7/13/21 1/14/22 3/43/23 5/44/24
f 1/19/25 2/20/26 10/21/27 9/22/28
f 2/20/26 4/23/29 11/24/30 10/21/27
f 4/23/29 3/25/31 12/26/32 11/24/30
f 3/25/31 1/19/25 9/22/28 12/26/32
f 9/22/33 10/21/34 14/16/35 13/15/36
f 10/21/37 11/24/38 15/17/39 14/16/40
f 11/24/41 12/26/42 16/18/43 15/17/44
f 12/26/45 9/22/46 13/15/47 16/18/48
f 17/27/49 18/28/50 20/29/51 19/30/52
f 19/30/53 20/29/54 22/31/55 21/32/56
f 21/32/57 22/31/58 24/33/59 23/34/60
f 23/34/61 24/33/62 18/28/63 17/27/64
f 18/28/65 24/33/66 22/31/67 20/29/68
f 23/34/69 17/27/70 19/30/71 21/32/72
f 25/35/73 26/36/74 28/37/75 27/38/76
f 27/38/77 28/37/78 30/39/79 29/40/80
f 29/40/81 30/39/82 32/41/83 31/42/84
f 31/42/85 32/41/86 26/36/87 25/35/88
f 26/36/89 32/41/90 30/39/91 28/37/92
f 31/42/93 25/35/94 27/38/95 29/40/96
f 33/51/97 34/52/98 37/53/99 36/54/100
f 34/55/101 35/56/102 38/57/103 37/58/104
f 35/56/105 33/61/106 36/62/107 38/57/108
f 34/45/109 33/46/110 39/47/111
f 35/48/112 34/45/109 39/47/111
f 33/46/110 35/48/112 39/47/111
f 36/49/113 37/50/114 40/59/115
f 37/50/114 38/60/116 40/59/115
f 38/60/116 36/49/113 40/59/115
