# This file uses centimeters as units for non-parametric coordinates.

mtllib building4.mtl
g default
v -4.959690 0.034270 1.221014
v -1.562622 0.034270 1.221014
v -4.959690 5.714685 1.221012
v -1.562622 5.714685 1.221012
v -4.959690 5.714685 -1.260989
v -1.562622 5.714685 -1.260989
v -4.959690 0.034270 -1.260989
v -1.562622 0.034270 -1.260989
v -4.021266 1.817375 1.089498
v -2.501047 1.817375 1.089498
v -2.501047 4.465074 1.089496
v -4.021266 4.465074 1.089496
v -4.021266 1.817375 0.863126
v -2.501047 1.817375 0.863126
v -2.501047 4.465074 0.863126
v -4.021266 4.465074 0.863126
v -3.382179 1.669600 1.028875
v -3.145676 1.669600 1.028875
v -3.382179 4.546138 1.028875
v -3.145676 4.546138 1.028875
v -3.382179 4.546138 0.763244
v -3.145676 4.546138 0.763244
v -3.382179 1.669600 0.763244
v -3.145676 1.669600 0.763244
v -2.288242 3.527261 1.028875
v -2.288242 3.763764 1.028875
v -4.326319 3.527261 1.028875
v -4.326319 3.763764 1.028875
v -4.326319 3.527261 0.763244
v -4.326319 3.763764 0.763244
v -2.288242 3.527261 0.763244
v -2.288242 3.763764 0.763244
v -1.532402 5.713428 -1.277981
v -1.532402 5.713428 1.224635
v -1.532402 6.679577 -0.026673
v -4.986793 5.713428 -1.277981
v -4.986793 5.713428 1.224635
v -4.986793 6.679577 -0.026673
v -1.532402 6.142561 -0.026673
v -4.986793 6.142561 -0.026673
v -1.570021 0.034270 1.221014
v 1.827046 0.034270 1.221014
v -1.570021 5.714685 1.221012
v 1.827046 5.714685 1.221012
v -1.570021 5.714685 -1.260989
v 1.827046 5.714685 -1.260989
v -1.570021 0.034270 -1.260989
v 1.827046 0.034270 -1.260989
v -0.631598 1.817375 1.089498
v 0.888621 1.817375 1.089498
v 0.888621 4.465074 1.089496
v -0.631598 4.465074 1.089496
v -0.631598 1.817375 0.863126
v 0.888621 1.817375 0.863126
v 0.888621 4.465074 0.863126
v -0.631598 4.465074 0.863126
v 0.007490 1.669600 1.028875
v 0.243992 1.669600 1.028875
v 0.007490 4.546138 1.028875
v 0.243992 4.546138 1.028875
v 0.007490 4.546138 0.763244
v 0.243992 4.546138 0.763244
v 0.007490 1.669600 0.763244
v 0.243992 1.669600 0.763244
v 1.101427 3.527261 1.028875
v 1.101427 3.763764 1.028875
v -0.936650 3.527261 1.028875
v -0.936650 3.763764 1.028875
v -0.936650 3.527261 0.763244
v -0.936650 3.763764 0.763244
v 1.101427 3.527261 0.763244
v 1.101427 3.763764 0.763244
v 1.857266 5.713428 -1.277981
v 1.857266 5.713428 1.224635
v 1.857266 6.679577 -0.026673
v -1.597125 5.713428 -1.277981
v -1.597125 5.713428 1.224635
v -1.597125 6.679577 -0.026673
v 1.857266 6.142561 -0.026673
v -1.597125 6.142561 -0.026673
v 1.818698 0.034270 1.221014
v 5.215765 0.034270 1.221014
v 1.818698 5.714685 1.221012
v 5.215765 5.714685 1.221012
v 1.818698 5.714685 -1.260989
v 5.215765 5.714685 -1.260989
v 1.818698 0.034270 -1.260989
v 5.215765 0.034270 -1.260989
v 2.757122 1.817375 1.089498
v 4.277341 1.817375 1.089498
v 4.277341 4.465074 1.089496
v 2.757122 4.465074 1.089496
v 2.757122 1.817375 0.863126
v 4.277341 1.817375 0.863126
v 4.277341 4.465074 0.863126
v 2.757122 4.465074 0.863126
v 3.396209 1.669600 1.028875
v 3.632712 1.669600 1.028875
v 3.396209 4.546138 1.028875
v 3.632712 4.546138 1.028875
v 3.396209 4.546138 0.763244
v 3.632712 4.546138 0.763244
v 3.396209 1.669600 0.763244
v 3.632712 1.669600 0.763244
v 4.490146 3.527261 1.028875
v 4.490146 3.763764 1.028875
v 2.452069 3.527261 1.028875
v 2.452069 3.763764 1.028875
v 2.452069 3.527261 0.763244
v 2.452069 3.763764 0.763244
v 4.490146 3.527261 0.763244
v 4.490146 3.763764 0.763244
v 5.245986 5.713428 -1.277981
v 5.245986 5.713428 1.224635
v 5.245986 6.679577 -0.026673
v 1.791595 5.713428 -1.277981
v 1.791595 5.713428 1.224635
v 1.791595 6.679577 -0.026673
v 5.245986 6.142561 -0.026673
v 1.791595 6.142561 -0.026673
vt 0.675860 0.365000
vt 0.981466 0.365000
vt 0.477315 0.322797
vt 0.664739 0.322797
vt 0.477315 0.538734
vt 0.664739 0.538734
vt 0.477315 0.754671
vt 0.664739 0.754671
vt 0.477315 0.970608
vt 0.664739 0.970608
vt 0.981466 0.882501
vt 0.675860 0.882501
vt 0.981466 0.365000
vt 0.675860 0.365000
vt 0.135476 0.537356
vt 0.335767 0.537356
vt 0.335767 0.844065
vt 0.135476 0.844065
vt 0.011838 0.330802
vt 0.459406 0.330802
vt 0.335767 0.537356
vt 0.135476 0.537356
vt 0.459406 0.988820
vt 0.335767 0.844065
vt 0.011838 0.988820
vt 0.135476 0.844065
vt 0.219677 0.520238
vt 0.250836 0.520238
vt 0.250836 0.853456
vt 0.219677 0.853456
vt 0.250836 0.853456
vt 0.219677 0.853456
vt 0.250836 0.520238
vt 0.219677 0.520238
vt 0.363804 0.735429
vt 0.363804 0.762825
vt 0.095285 0.762825
vt 0.095285 0.735429
vt 0.095285 0.762825
vt 0.095285 0.735429
vt 0.363804 0.762825
vt 0.363804 0.735429
vt 0.675860 0.882501
vt 0.981466 0.882501
vt 0.675414 0.882387
vt 0.983559 0.882387
vt 0.829486 0.921482
vt 0.829486 0.970405
vt 0.983559 0.882387
vt 0.675414 0.882387
vt 0.853670 0.020462
vt 0.981934 0.020462
vt 0.981934 0.242586
vt 0.853670 0.242586
vt 0.008388 0.009767
vt 0.337823 0.009209
vt 0.338610 0.288413
vt 0.009175 0.288972
vt 0.829486 0.921482
vt 0.829486 0.970405
vt 0.667257 0.008650
vt 0.668045 0.287855
vt 0.135476 0.537356
vt 0.335767 0.537356
vt 0.335767 0.844065
vt 0.135476 0.844065
vt 0.477315 0.322797
vt 0.664739 0.322797
vt 0.664739 0.538734
vt 0.477315 0.538734
vt 0.664739 0.754671
vt 0.477315 0.754671
vt 0.664739 0.970608
vt 0.477315 0.970608
vt 0.675860 0.365000
vt 0.981466 0.365000
vt 0.981466 0.882501
vt 0.675860 0.882501
vt 0.981466 0.365000
vt 0.675860 0.365000
vt 0.675860 0.882501
vt 0.981466 0.882501
vt 0.011838 0.330802
vt 0.459406 0.330802
vt 0.335767 0.537356
vt 0.135476 0.537356
vt 0.459406 0.988820
vt 0.335767 0.844065
vt 0.011838 0.988820
vt 0.135476 0.844065
vt 0.219677 0.520238
vt 0.250836 0.520238
vt 0.250836 0.853456
vt 0.219677 0.853456
vt 0.250836 0.853456
vt 0.219677 0.853456
vt 0.250836 0.520238
vt 0.219677 0.520238
vt 0.363804 0.735429
vt 0.363804 0.762825
vt 0.095285 0.762825
vt 0.095285 0.735429
vt 0.095285 0.762825
vt 0.095285 0.735429
vt 0.363804 0.762825
vt 0.363804 0.735429
vt 0.853670 0.020462
vt 0.981934 0.020462
vt 0.981934 0.242586
vt 0.853670 0.242586
vt 0.008388 0.009767
vt 0.337823 0.009209
vt 0.338610 0.288413
vt 0.009175 0.288972
vt 0.667257 0.008650
vt 0.668045 0.287855
vt 0.675414 0.882387
vt 0.983559 0.882387
vt 0.829486 0.921482
vt 0.829486 0.970405
vt 0.983559 0.882387
vt 0.675414 0.882387
vt 0.829486 0.921482
vt 0.829486 0.970405
vt 0.135476 0.537356
vt 0.335767 0.537356
vt 0.335767 0.844065
vt 0.135476 0.844065
vt 0.477315 0.322797
vt 0.664739 0.322797
vt 0.664739 0.538734
vt 0.477315 0.538734
vt 0.664739 0.754671
vt 0.477315 0.754671
vt 0.664739 0.970608
vt 0.477315 0.970608
vt 0.675860 0.365000
vt 0.981466 0.365000
vt 0.981466 0.882501
vt 0.675860 0.882501
vt 0.981466 0.365000
vt 0.675860 0.365000
vt 0.675860 0.882501
vt 0.981466 0.882501
vt 0.011838 0.330802
vt 0.459406 0.330802
vt 0.335767 0.537356
vt 0.135476 0.537356
vt 0.459406 0.988820
vt 0.335767 0.844065
vt 0.011838 0.988820
vt 0.135476 0.844065
vt 0.219677 0.520238
vt 0.250836 0.520238
vt 0.250836 0.853456
vt 0.219677 0.853456
vt 0.250836 0.853456
vt 0.219677 0.853456
vt 0.250836 0.520238
vt 0.219677 0.520238
vt 0.363804 0.735429
vt 0.363804 0.762825
vt 0.095285 0.762825
vt 0.095285 0.735429
vt 0.095285 0.762825
vt 0.095285 0.735429
vt 0.363804 0.762825
vt 0.363804 0.735429
vt 0.853670 0.020462
vt 0.981934 0.020462
vt 0.981934 0.242586
vt 0.853670 0.242586
vt 0.008388 0.009767
vt 0.337823 0.009209
vt 0.338610 0.288413
vt 0.009175 0.288972
vt 0.667257 0.008650
vt 0.668045 0.287855
vt 0.675414 0.882387
vt 0.983559 0.882387
vt 0.829486 0.921482
vt 0.829486 0.970405
vt 0.983559 0.882387
vt 0.675414 0.882387
vt 0.829486 0.921482
vt 0.829486 0.970405
vn 0.000000 0.000000 1.000000
vn 0.000000 0.000000 1.000000
vn 0.000000 0.000000 1.000000
vn 0.000000 0.000000 1.000000
vn 0.000000 1.000000 0.000000
vn 0.000000 1.000000 0.000000
vn 0.000000 1.000000 0.000000
vn 0.000000 1.000000 0.000000
vn 0.000000 0.000000 -1.000000
vn 0.000000 0.000000 -1.000000
vn 0.000000 0.000000 -1.000000
vn 0.000000 0.000000 -1.000000
vn 0.000000 -1.000000 0.000000
vn 0.000000 -1.000000 0.000000
vn 0.000000 -1.000000 0.000000
vn 0.000000 -1.000000 0.000000
vn 1.000000 0.000000 0.000000
vn 1.000000 0.000000 0.000000
vn 1.000000 0.000000 0.000000
vn 1.000000 0.000000 0.000000
vn -1.000000 0.000000 0.000000
vn -1.000000 0.000000 0.000000
vn -1.000000 0.000000 0.000000
vn -1.000000 0.000000 0.000000
vn 0.069610 0.036893 0.996892
vn -0.069610 0.036893 0.996892
vn -0.069610 0.036893 0.996892
vn 0.069610 0.036893 0.996892
vn -0.069658 -0.052532 0.996187
vn -0.069658 -0.052532 0.996187
vn 0.069658 -0.052532 0.996187
vn 0.069658 -0.052532 0.996187
vn 0.000000 1.000000 0.000000
vn 0.000000 1.000000 0.000000
vn 0.000000 1.000000 0.000000
vn 0.000000 1.000000 0.000000
vn -1.000000 0.000000 0.000000
vn -1.000000 0.000000 0.000000
vn -1.000000 0.000000 0.000000
vn -1.000000 0.000000 0.000000
vn 0.000000 -1.000000 0.000000
vn 0.000000 -1.000000 0.000000
vn 0.000000 -1.000000 0.000000
vn 0.000000 -1.000000 0.000000
vn 1.000000 0.000000 0.000000
vn 1.000000 0.000000 0.000000
vn 1.000000 0.000000 0.000000
vn 1.000000 0.000000 0.000000
vn 0.000000 0.000000 1.000000
vn 0.000000 0.000000 1.000000
vn 0.000000 0.000000 1.000000
vn 0.000000 0.000000 1.000000
vn 0.000000 1.000000 0.000000
vn 0.000000 1.000000 0.000000
vn 0.000000 1.000000 0.000000
vn 0.000000 1.000000 0.000000
vn 0.000000 0.000000 -1.000000
vn 0.000000 0.000000 -1.000000
vn 0.000000 0.000000 -1.000000
vn 0.000000 0.000000 -1.000000
vn 0.000000 -1.000000 0.000000
vn 0.000000 -1.000000 0.000000
vn 0.000000 -1.000000 0.000000
vn 0.000000 -1.000000 0.000000
vn 1.000000 0.000000 0.000000
vn 1.000000 0.000000 0.000000
vn 1.000000 0.000000 0.000000
vn 1.000000 0.000000 0.000000
vn -1.000000 0.000000 0.000000
vn -1.000000 0.000000 0.000000
vn -1.000000 0.000000 0.000000
vn -1.000000 0.000000 0.000000
vn 0.000000 0.000000 1.000000
vn 0.000000 0.000000 1.000000
vn 0.000000 0.000000 1.000000
vn 0.000000 0.000000 1.000000
vn -1.000000 0.000000 0.000000
vn -1.000000 0.000000 0.000000
vn -1.000000 0.000000 0.000000
vn -1.000000 0.000000 0.000000
vn 0.000000 0.000000 -1.000000
vn 0.000000 0.000000 -1.000000
vn 0.000000 0.000000 -1.000000
vn 0.000000 0.000000 -1.000000
vn 1.000000 0.000000 0.000000
vn 1.000000 0.000000 0.000000
vn 1.000000 0.000000 0.000000
vn 1.000000 0.000000 0.000000
vn 0.000000 1.000000 0.000000
vn 0.000000 1.000000 0.000000
vn 0.000000 1.000000 0.000000
vn 0.000000 1.000000 0.000000
vn 0.000000 -1.000000 0.000000
vn 0.000000 -1.000000 0.000000
vn 0.000000 -1.000000 0.000000
vn 0.000000 -1.000000 0.000000
vn 0.000000 -1.000000 0.000000
vn 0.000000 -1.000000 0.000000
vn 0.000000 -1.000000 0.000000
vn 0.000000 -1.000000 0.000000
vn 0.000000 0.791521 0.611142
vn 0.000000 0.791521 0.611142
vn 0.000000 0.791521 0.611142
vn 0.000000 0.791521 0.611142
vn 0.000000 0.791521 -0.611142
vn 0.000000 0.791521 -0.611142
vn 0.000000 0.791521 -0.611142
vn 0.000000 0.791521 -0.611142
vn 1.000000 0.000000 0.000000
vn 1.000000 0.000000 0.000000
vn 1.000000 0.000000 0.000000
vn 1.000000 0.000000 0.000000
vn -1.000000 0.000000 0.000000
vn -1.000000 0.000000 0.000000
vn -1.000000 0.000000 0.000000
vn -1.000000 0.000000 0.000000
vn 0.000000 0.000000 1.000000
vn 0.000000 0.000000 1.000000
vn 0.000000 0.000000 1.000000
vn 0.000000 0.000000 1.000000
vn 0.000000 1.000000 0.000000
vn 0.000000 1.000000 0.000000
vn 0.000000 1.000000 0.000000
vn 0.000000 1.000000 0.000000
vn 0.000000 0.000000 -1.000000
vn 0.000000 0.000000 -1.000000
vn 0.000000 0.000000 -1.000000
vn 0.000000 0.000000 -1.000000
vn 0.000000 -1.000000 0.000000
vn 0.000000 -1.000000 0.000000
vn 0.000000 -1.000000 0.000000
vn 0.000000 -1.000000 0.000000
vn 1.000000 -0.000000 0.000000
vn 1.000000 -0.000000 0.000000
vn 1.000000 -0.000000 0.000000
vn 1.000000 -0.000000 0.000000
vn -1.000000 0.000000 0.000000
vn -1.000000 0.000000 0.000000
vn -1.000000 0.000000 0.000000
vn -1.000000 0.000000 0.000000
vn 0.069610 0.036893 0.996892
vn -0.069610 0.036893 0.996892
vn -0.069610 0.036893 0.996892
vn 0.069610 0.036893 0.996892
vn -0.069658 -0.052532 0.996187
vn -0.069658 -0.052532 0.996187
vn 0.069658 -0.052532 0.996187
vn 0.069658 -0.052532 0.996187
vn 0.000000 1.000000 0.000000
vn 0.000000 1.000000 0.000000
vn 0.000000 1.000000 0.000000
vn 0.000000 1.000000 0.000000
vn -1.000000 0.000000 0.000000
vn -1.000000 0.000000 0.000000
vn -1.000000 0.000000 0.000000
vn -1.000000 0.000000 0.000000
vn 0.000000 -1.000000 0.000000
vn 0.000000 -1.000000 0.000000
vn 0.000000 -1.000000 0.000000
vn 0.000000 -1.000000 0.000000
vn 1.000000 0.000000 0.000000
vn 1.000000 0.000000 0.000000
vn 1.000000 0.000000 0.000000
vn 1.000000 0.000000 0.000000
vn 0.000000 0.000000 1.000000
vn 0.000000 0.000000 1.000000
vn 0.000000 0.000000 1.000000
vn 0.000000 0.000000 1.000000
vn 0.000000 1.000000 0.000000
vn 0.000000 1.000000 0.000000
vn 0.000000 1.000000 0.000000
vn 0.000000 1.000000 0.000000
vn 0.000000 0.000000 -1.000000
vn 0.000000 0.000000 -1.000000
vn 0.000000 0.000000 -1.000000
vn 0.000000 0.000000 -1.000000
vn 0.000000 -1.000000 0.000000
vn 0.000000 -1.000000 0.000000
vn 0.000000 -1.000000 0.000000
vn 0.000000 -1.000000 0.000000
vn 1.000000 0.000000 0.000000
vn 1.000000 0.000000 0.000000
vn 1.000000 0.000000 0.000000
vn 1.000000 0.000000 0.000000
vn -1.000000 0.000000 0.000000
vn -1.000000 0.000000 0.000000
vn -1.000000 0.000000 0.000000
vn -1.000000 0.000000 0.000000
vn 0.000000 0.000000 1.000000
vn 0.000000 0.000000 1.000000
vn 0.000000 0.000000 1.000000
vn 0.000000 0.000000 1.000000
vn -1.000000 0.000000 0.000000
vn -1.000000 0.000000 0.000000
vn -1.000000 0.000000 0.000000
vn -1.000000 0.000000 0.000000
vn 0.000000 0.000000 -1.000000
vn 0.000000 0.000000 -1.000000
vn 0.000000 0.000000 -1.000000
vn 0.000000 0.000000 -1.000000
vn 1.000000 0.000000 0.000000
vn 1.000000 0.000000 0.000000
vn 1.000000 0.000000 0.000000
vn 1.000000 0.000000 0.000000
vn 0.000000 1.000000 0.000000
vn 0.000000 1.000000 0.000000
vn 0.000000 1.000000 0.000000
vn 0.000000 1.000000 0.000000
vn 0.000000 -1.000000 0.000000
vn 0.000000 -1.000000 0.000000
vn 0.000000 -1.000000 0.000000
vn 0.000000 -1.000000 0.000000
vn 0.000000 -1.000000 0.000000
vn 0.000000 -1.000000 0.000000
vn 0.000000 -1.000000 0.000000
vn 0.000000 -1.000000 0.000000
vn 0.000000 0.791521 0.611142
vn 0.000000 0.791521 0.611142
vn 0.000000 0.791521 0.611142
vn 0.000000 0.791521 0.611142
vn 0.000000 0.791521 -0.611142
vn 0.000000 0.791521 -0.611142
vn 0.000000 0.791521 -0.611142
vn 0.000000 0.791521 -0.611142
vn 1.000000 0.000000 0.000000
vn 1.000000 0.000000 0.000000
vn 1.000000 0.000000 0.000000
vn 1.000000 0.000000 0.000000
vn -1.000000 0.000000 0.000000
vn -1.000000 0.000000 0.000000
vn -1.000000 0.000000 0.000000
vn -1.000000 0.000000 0.000000
vn 0.000000 0.000000 1.000000
vn 0.000000 0.000000 1.000000
vn 0.000000 0.000000 1.000000
vn 0.000000 0.000000 1.000000
vn 0.000000 1.000000 0.000000
vn 0.000000 1.000000 0.000000
vn 0.000000 1.000000 0.000000
vn 0.000000 1.000000 0.000000
vn 0.000000 0.000000 -1.000000
vn 0.000000 0.000000 -1.000000
vn 0.000000 0.000000 -1.000000
vn 0.000000 0.000000 -1.000000
vn 0.000000 -1.000000 0.000000
vn 0.000000 -1.000000 0.000000
vn 0.000000 -1.000000 0.000000
vn 0.000000 -1.000000 0.000000
vn 1.000000 0.000000 0.000000
vn 1.000000 0.000000 0.000000
vn 1.000000 0.000000 0.000000
vn 1.000000 0.000000 0.000000
vn -1.000000 0.000000 0.000000
vn -1.000000 0.000000 0.000000
vn -1.000000 0.000000 0.000000
vn -1.000000 0.000000 0.000000
vn 0.069610 0.036893 0.996892
vn -0.069610 0.036893 0.996892
vn -0.069610 0.036893 0.996892
vn 0.069610 0.036893 0.996892
vn -0.069658 -0.052532 0.996187
vn -0.069658 -0.052532 0.996187
vn 0.069658 -0.052532 0.996187
vn 0.069658 -0.052532 0.996187
vn 0.000000 1.000000 0.000000
vn 0.000000 1.000000 0.000000
vn 0.000000 1.000000 0.000000
vn 0.000000 1.000000 0.000000
vn -1.000000 0.000000 0.000000
vn -1.000000 0.000000 0.000000
vn -1.000000 0.000000 0.000000
vn -1.000000 0.000000 0.000000
vn 0.000000 -1.000000 0.000000
vn 0.000000 -1.000000 0.000000
vn 0.000000 -1.000000 0.000000
vn 0.000000 -1.000000 0.000000
vn 1.000000 0.000000 0.000000
vn 1.000000 0.000000 0.000000
vn 1.000000 0.000000 0.000000
vn 1.000000 0.000000 0.000000
vn 0.000000 0.000000 1.000000
vn 0.000000 0.000000 1.000000
vn 0.000000 0.000000 1.000000
vn 0.000000 0.000000 1.000000
vn 0.000000 1.000000 0.000000
vn 0.000000 1.000000 0.000000
vn 0.000000 1.000000 0.000000
vn 0.000000 1.000000 0.000000
vn 0.000000 0.000000 -1.000000
vn 0.000000 0.000000 -1.000000
vn 0.000000 0.000000 -1.000000
vn 0.000000 0.000000 -1.000000
vn 0.000000 -1.000000 0.000000
vn 0.000000 -1.000000 0.000000
vn 0.000000 -1.000000 0.000000
vn 0.000000 -1.000000 0.000000
vn 1.000000 0.000000 0.000000
vn 1.000000 0.000000 0.000000
vn 1.000000 0.000000 0.000000
vn 1.000000 0.000000 0.000000
vn -1.000000 0.000000 0.000000
vn -1.000000 0.000000 0.000000
vn -1.000000 0.000000 0.000000
vn -1.000000 0.000000 0.000000
vn 0.000000 0.000000 1.000000
vn 0.000000 0.000000 1.000000
vn 0.000000 0.000000 1.000000
vn 0.000000 0.000000 1.000000
vn -1.000000 0.000000 0.000000
vn -1.000000 0.000000 0.000000
vn -1.000000 0.000000 0.000000
vn -1.000000 0.000000 0.000000
vn 0.000000 0.000000 -1.000000
vn 0.000000 0.000000 -1.000000
vn 0.000000 0.000000 -1.000000
vn 0.000000 0.000000 -1.000000
vn 1.000000 0.000000 0.000000
vn 1.000000 0.000000 0.000000
vn 1.000000 0.000000 0.000000
vn 1.000000 0.000000 0.000000
vn 0.000000 1.000000 0.000000
vn 0.000000 1.000000 0.000000
vn 0.000000 1.000000 0.000000
vn 0.000000 1.000000 0.000000
vn 0.000000 -1.000000 0.000000
vn 0.000000 -1.000000 0.000000
vn 0.000000 -1.000000 0.000000
vn 0.000000 -1.000000 0.000000
vn 0.000000 -1.000000 0.000000
vn 0.000000 -1.000000 0.000000
vn 0.000000 -1.000000 0.000000
vn 0.000000 -1.000000 0.000000
vn 0.000000 0.791521 0.611142
vn 0.000000 0.791521 0.611142
vn 0.000000 0.791521 0.611142
vn 0.000000 0.791521 0.611142
vn 0.000000 0.791521 -0.611142
vn 0.000000 0.791521 -0.611142
vn 0.000000 0.791521 -0.611142
vn 0.000000 0.791521 -0.611142
vn 1.000000 0.000000 0.000000
vn 1.000000 0.000000 0.000000
vn 1.000000 0.000000 0.000000
vn 1.000000 0.000000 0.000000
vn -1.000000 0.000000 0.000000
vn -1.000000 0.000000 0.000000
vn -1.000000 0.000000 0.000000
vn -1.000000 0.000000 0.000000
g Building_4
usemtl lambert2SG
f 13/15/1 14/16/2 15/17/3 16/18/4
f 3/3/5 4/4/6 6/6/7 5/5/8
f 5/5/9 6/6/10 8/8/11 7/7/12
f 7/7/13 8/8/14 2/10/15 1/9/16
f 2/1/17 8/2/18 6/11/19 4/12/20
f 7/13/21 1/14/22 3/43/23 5/44/24
f 1/19/25 2/20/26 10/21/27 9/22/28
f 2/20/26 4/23/29 11/24/30 10/21/27
f 4/23/29 3/25/31 12/26/32 11/24/30
f 3/25/31 1/19/25 9/22/28 12/26/32
f 9/22/33 10/21/34 14/16/35 13/15/36
f 10/21/37 11/24/38 15/17/39 14/16/40
f 11/24/41 12/26/42 16/18/43 15/17/44
f 12/26/45 9/22/46 13/15/47 16/18/48
f 17/27/49 18/28/50 20/29/51 19/30/52
f 19/30/53 20/29/54 22/31/55 21/32/56
f 21/32/57 22/31/58 24/33/59 23/34/60
f 23/34/61 24/33/62 18/28/63 17/27/64
f 18/28/65 24/33/66 22/31/67 20/29/68
f 23/34/69 17/27/70 19/30/71 21/32/72
f 25/35/73 26/36/74 28/37/75 27/38/76
f 27/38/77 28/37/78 30/39/79 29/40/80
f 29/40/81 30/39/82 32/41/83 31/42/84
f 31/42/85 32/41/86 26/36/87 25/35/88
f 26/36/89 32/41/90 30/39/91 28/37/92
f 31/42/93 25/35/94 27/38/95 29/40/96
f 33/51/97 34/52/98 37/53/99 36/54/100
f 34/55/101 35/56/102 38/57/103 37/58/104
f 35/56/105 33/61/106 36/62/107 38/57/108
f 34/45/109 33/46/110 39/47/111
f 35/48/112 34/45/109 39/47/111
f 33/46/110 35/48/112 39/47/111
f 36/49/113 37/50/114 40/59/115
f 37/50/114 38/60/116 40/59/115
f 38/60/116 36/49/113 40/59/115
f 53/63/117 54/64/118 55/65/119 56/66/120
f 43/67/121 44/68/122 46/69/123 45/70/124
f 45/70/125 46/69/126 48/71/127 47/72/128
f 47/72/129 48/71/130 42/73/131 41/74/132
f 42/75/133 48/76/134 46/77/135 44/78/136
f 47/79/137 41/80/138 43/81/139 45/82/140
f 41/83/141 42/84/142 50/85/143 49/86/144
f 42/84/142 44/87/145 51/88/146 50/85/143
f 44/87/145 43/89/147 52/90/148 51/88/146
f 43/89/147 41/83/141 49/86/144 52/90/148
f 49/86/149 50/85/150 54/64/151 53/63/152
f 50/85/153 51/88/154 55/65/155 54/64/156
f 51/88/157 52/90/158 56/66/159 55/65/160
f 52/90/161 49/86/162 53/63/163 56/66/164
f 57/91/165 58/92/166 60/93/167 59/94/168
f 59/94/169 60/93/170 62/95/171 61/96/172
f 61/96/173 62/95/174 64/97/175 63/98/176
f 63/98/177 64/97/178 58/92/179 57/91/180
f 58/92/181 64/97/182 62/95/183 60/93/184
f 63/98/185 57/91/186 59/94/187 61/96/188
f 65/99/189 66/100/190 68/101/191 67/102/192
f 67/102/193 68/101/194 70/103/195 69/104/196
f 69/104/197 70/103/198 72/105/199 71/106/200
f 71/106/201 72/105/202 66/100/203 65/99/204
f 66/100/205 72/105/206 70/103/207 68/101/208
f 71/106/209 65/99/210 67/102/211 69/104/212
f 73/107/213 74/108/214 77/109/215 76/110/216
f 74/111/217 75/112/218 78/113/219 77/114/220
f 75/112/221 73/115/222 76/116/223 78/113/224
f 74/117/225 73/118/226 79/119/227
f 75/120/228 74/117/225 79/119/227
f 73/118/226 75/120/228 79/119/227
f 76/121/229 77/122/230 80/123/231
f 77/122/230 78/124/232 80/123/231
f 78/124/232 76/121/229 80/123/231
f 93/125/233 94/126/234 95/127/235 96/128/236
f 83/129/237 84/130/238 86/131/239 85/132/240
f 85/132/241 86/131/242 88/133/243 87/134/244
f 87/134/245 88/133/246 82/135/247 81/136/248
f 82/137/249 88/138/250 86/139/251 84/140/252
f 87/141/253 81/142/254 83/143/255 85/144/256
f 81/145/257 82/146/258 90/147/259 89/148/260
f 82/146/258 84/149/261 91/150/262 90/147/259
f 84/149/261 83/151/263 92/152/264 91/150/262
f 83/151/263 81/145/257 89/148/260 92/152/264
f 89/148/265 90/147/266 94/126/267 93/125/268
f 90/147/269 91/150/270 95/127/271 94/126/272
f 91/150/273 92/152/274 96/128/275 95/127/276
f 92/152/277 89/148/278 93/125/279 96/128/280
f 97/153/281 98/154/282 100/155/283 99/156/284
f 99/156/285 100/155/286 102/157/287 101/158/288
f 101/158/289 102/157/290 104/159/291 103/160/292
f 103/160/293 104/159/294 98/154/295 97/153/296
f 98/154/297 104/159/298 102/157/299 100/155/300
f 103/160/301 97/153/302 99/156/303 101/158/304
f 105/161/305 106/162/306 108/163/307 107/164/308
f 107/164/309 108/163/310 110/165/311 109/166/312
f 109/166/313 110/165/314 112/167/315 111/168/316
f 111/168/317 112/167/318 106/162/319 105/161/320
f 106/162/321 112/167/322 110/165/323 108/163/324
f 111/168/325 105/161/326 107/164/327 109/166/328
f 113/169/329 114/170/330 117/171/331 116/172/332
f 114/173/333 115/174/334 118/175/335 117/176/336
f 115/174/337 113/177/338 116/178/339 118/175/340
f 114/179/341 113/180/342 119/181/343
f 115/182/344 114/179/341 119/181/343
f 113/180/342 115/182/344 119/181/343
f 116/183/345 117/184/346 120/185/347
f 117/184/346 118/186/348 120/185/347
f 118/186/348 116/183/345 120/185/347
