# Blender3D v2.52 (sub 0) OBJ File: building5.blend
# www.blender3d.org
o Mesh
v 1.495606 0.046489 -1.286055
v 1.495606 0.046490 1.286056
v -1.495606 0.046490 1.286055
v -1.495606 0.046489 -1.286056
v 1.495607 26.950874 -1.286056
v 1.495605 26.950874 1.286055
v -1.495607 26.950874 1.286054
v -1.495606 26.950874 -1.286057
v 1.499208 26.132187 1.281849
v -1.499209 26.122406 1.290260
v 1.496488 0.883621 1.285026
v -1.496490 0.883235 1.287087
v -0.851909 0.046490 1.286055
v -0.867289 26.950874 1.286054
v -0.848487 26.124733 1.288492
v -0.827572 0.883071 1.286504
v 0.935849 0.046490 1.286055
v 0.929699 26.950874 1.286055
v 0.937241 26.129894 1.285487
v 0.946401 0.883348 1.284314
v 0.937077 26.129951 0.728918
v 0.946238 0.883402 0.727745
v -0.827735 0.883125 0.729935
v -0.848651 26.124786 0.731922
vn 0.000000 -0.000000 -1.000000
vn 0.999999 -0.000000 -0.001402
vn 0.999990 0.004400 0.000001
vn -0.999999 -0.000000 -0.001398
vn -0.999991 0.004348 -0.000000
vn 1.000000 -0.000108 -0.000308
vn 0.999999 -0.001053 0.000000
vn -0.999999 -0.001056 -0.000000
vn -1.000000 -0.000108 -0.000309
vn -0.000000 -1.000000 0.000000
vn 0.000000 1.000000 -0.000000
vn 0.001375 0.004028 0.999991
vn 0.000444 -0.000891 0.999999
vn 0.001782 -0.000101 0.999998
vn 0.003231 -0.002889 0.999991
vn 0.000837 0.001149 0.999999
vn -0.000642 0.001660 0.999998
vn 0.000615 0.000760 1.000000
vn 0.002631 0.000040 0.999997
vn -1.000000 -0.000363 0.000294
vn -0.000156 1.000000 0.000097
vn 0.002891 -0.999996 -0.000100
vn 1.000000 0.000829 -0.000293
vn 0.001459 -0.000062 0.999999
usemtl (null)
s off
f 5//1 1//1 4//1 8//1
f 9//2 1//2 5//2
f 6//3 9//3 5//3
f 10//4 8//4 4//4
f 10//5 7//5 8//5
f 11//6 1//6 9//6
f 2//7 1//7 11//7
f 3//8 12//8 4//8
f 12//9 10//9 4//9
f 4//10 1//10 13//10
f 13//10 3//10 4//10
f 14//11 5//11 8//11
f 7//11 14//11 8//11
f 14//12 7//12 10//12 15//12
f 16//13 12//13 3//13 13//13
f 15//14 10//14 12//14 16//14
f 17//10 1//10 2//10
f 13//10 1//10 17//10
f 14//11 18//11 5//11
f 18//11 6//11 5//11
f 6//15 18//15 19//15 9//15
f 18//16 14//16 15//16 19//16
f 11//17 20//17 17//17 2//17
f 20//18 16//18 13//18 17//18
f 9//19 19//19 20//19 11//19
f 20//20 19//20 21//20 22//20
f 16//21 20//21 22//21 23//21
f 19//22 15//22 24//22 21//22
f 15//23 16//23 23//23 24//23
f 21//24 24//24 23//24 22//24
