# Blender3D v2.52 (sub 0) OBJ File: default.blend
# www.blender3d.org
o Cube
v 0.203300 -0.203300 -0.744685
v 0.203300 -0.203300 0.744686
v -0.203300 -0.203300 0.744685
v -0.203300 -0.203300 -0.744686
v 0.203300 0.203300 -0.744685
v 0.203300 0.203300 0.744686
v -0.203300 0.203300 0.744685
v -0.203300 0.203300 -0.744686
v -0.098976 0.098976 0.744685
v 0.098976 0.098976 0.744686
v -0.098976 -0.098976 0.744686
v 0.098976 -0.098976 0.744686
v 0.098976 -0.098976 0.888946
v -0.098976 -0.098976 0.888946
v 0.098976 0.098976 0.888946
v -0.098976 0.098976 0.888946
v -0.195874 0.195873 0.888945
v 0.195873 0.195873 0.888946
v -0.195873 -0.195873 0.888946
v 0.195873 -0.195873 0.888946
v 0.195873 -0.195873 1.063496
v -0.195873 -0.195873 1.063496
v 0.195873 0.195873 1.063496
v -0.195874 0.195873 1.063496
v 0.000000 -0.000000 -1.339427
vn 0.688345 -0.688345 -0.228797
vn 0.408246 -0.408246 0.816492
vn -0.408246 -0.408246 0.816492
vn -0.688345 -0.688345 -0.228797
vn 0.688345 0.688345 -0.228797
vn -0.688345 0.688345 -0.228797
vn -0.408246 0.408246 0.816492
vn 0.408246 0.408246 0.816492
vn 0.408246 -0.408246 -0.816492
vn -0.408246 -0.408246 -0.816492
vn 0.408246 0.408246 -0.816492
vn -0.408246 0.408246 -0.816492
vn 0.577349 -0.577349 0.577349
vn -0.577349 -0.577349 0.577349
vn 0.577349 0.577349 0.577349
vn -0.577349 0.577349 0.577349
vn 0.000000 0.000000 -1.000000
usemtl Material
s 1
f 1//1 2//2 3//3 4//4
f 5//5 8//6 7//7 6//8
f 1//1 5//5 6//8 2//2
f 3//3 7//7 8//6 4//4
f 6//8 7//7 9//7 10//8
f 7//7 3//3 11//3 9//7
f 2//2 6//8 10//8 12//2
f 3//3 2//2 12//2 11//3
f 11//3 12//2 13//9 14//10
f 12//2 10//8 15//11 13//9
f 9//7 11//3 14//10 16//12
f 10//8 9//7 16//12 15//11
f 15//11 16//12 17//12 18//11
f 16//12 14//10 19//10 17//12
f 13//9 15//11 18//11 20//9
f 14//10 13//9 20//9 19//10
f 19//10 20//9 21//13 22//14
f 20//9 18//11 23//15 21//13
f 17//12 19//10 22//14 24//16
f 18//11 17//12 24//16 23//15
f 21//13 23//15 24//16 22//14
f 4//4 8//6 25//17
f 1//1 4//4 25//17
f 5//5 25//17 8//6
f 1//1 25//17 5//5
