# Blender3D v2.52 (sub 0) OBJ File: buttone.blend
# www.blender3d.org
o Cube
v -2.315202 -0.493283 0.252917
v -1.541126 -0.993283 0.252917
v 2.346149 0.487589 0.252918
v 1.566337 0.987589 0.252918
v 1.555181 -0.987589 0.252918
v -2.332722 0.493282 0.252917
v 2.329257 -0.487589 0.252918
v -1.552910 0.993283 0.252917
v -2.332722 0.493282 0.449973
v -1.552910 0.993283 0.449973
v 1.566337 0.987589 0.449973
v 2.346149 0.487589 0.449973
v 2.329257 -0.487589 0.449973
v 1.555181 -0.987589 0.449973
v -2.315202 -0.493283 0.449973
v -1.541126 -0.993283 0.449973
v -1.682450 -1.083973 0.449973
v -2.527203 -0.538321 0.449973
v 1.708738 1.077760 0.449973
v 2.559750 0.532107 0.449973
v 1.696562 -1.077760 0.449973
v -2.546323 0.538321 0.449973
v 2.541315 -0.532108 0.449973
v -1.695311 1.083973 0.449973
v -2.546323 0.538321 -0.454828
v -1.695311 1.083973 -0.454828
v 1.708738 1.077760 -0.454828
v 2.541315 -0.532108 -0.454828
v 2.559750 0.532107 -0.454828
v 1.696562 -1.077760 -0.454828
v -2.527203 -0.538321 -0.454828
v -1.682450 -1.083973 -0.454828
vt 0.605661 0.676944
vt 0.657519 0.614797
vt 0.660535 0.865323
vt 0.607868 0.808104
vt 0.842467 0.609079
vt 0.847365 0.860391
vt 0.895637 0.670728
vt 0.897078 0.799682
vt 0.609711 0.963820
vt 0.514106 0.843997
vt 0.887699 0.932891
vt 0.983639 0.639501
vt 0.977365 0.840226
vt 0.895491 0.529521
vt 0.519207 0.631417
vt 0.618647 0.528388
vt 0.128574 0.516100
vt 0.000000 0.378812
vt 0.032041 0.372433
vt 0.130927 0.468402
vt 0.467513 0.032048
vt 0.582127 0.154639
vt 0.550505 0.160452
vt 0.461678 0.069570
vt 0.451184 0.510641
vt 0.448019 0.471698
vt 0.010786 0.120913
vt 0.045793 0.130947
vt 0.582127 0.392722
vt 0.552763 0.384666
vt 0.159882 0.000000
vt 0.157467 0.046811
vt 0.285406 0.245769
vt 0.279323 0.254939
vt 0.311558 0.242351
vt 0.319932 0.268567
vt 0.319586 0.251200
vt 0.313379 0.277783
vt 0.281490 0.272422
vt 0.290067 0.281009
vn 0.000000 0.000000 1.000000
vn 0.539758 -0.841820 0.000000
vn -0.001825 -0.999998 0.000000
vn -0.999850 0.017319 0.000000
vn -0.542583 0.840002 0.000000
vn 0.999842 0.017756 0.000000
vn -0.001839 0.999998 0.000000
vn -0.539759 -0.841820 0.000000
vn 0.542583 0.840002 0.000000
vn -0.539758 0.841820 -0.000000
vn 0.001825 0.999998 0.000000
vn 0.999850 -0.017319 0.000000
vn 0.542583 -0.840002 0.000000
vn -0.999842 -0.017756 0.000000
vn 0.001839 -0.999998 0.000000
vn 0.539758 0.841820 0.000000
vn -0.542583 -0.840002 0.000000
vn 0.000000 0.000000 -1.000000
usemtl Material_button.png
s off
f 1/1/1 2/2/1 8/3/1 6/4/1
f 2/2/1 5/5/1 4/6/1 8/3/1
f 4/6/1 5/5/1 7/7/1 3/8/1
f 6/4/2 8/3/2 10/9/2 9/10/2
f 8/3/3 4/6/3 11/11/3 10/9/3
f 3/8/4 7/7/4 13/12/4 12/13/4
f 7/7/5 5/5/5 14/14/5 13/12/5
f 1/1/6 6/4/6 9/10/6 15/15/6
f 5/5/7 2/2/7 16/16/7 14/14/7
f 4/6/8 3/8/8 12/13/8 11/11/8
f 2/2/9 1/1/9 15/15/9 16/16/9
f 16/17/1 15/18/1 18/19/1 17/20/1
f 11/21/1 12/22/1 20/23/1 19/24/1
f 14/25/1 16/17/1 17/20/1 21/26/1
f 15/18/1 9/27/1 22/28/1 18/19/1
f 13/29/1 14/25/1 21/26/1 23/30/1
f 12/22/1 13/29/1 23/30/1 20/23/1
f 10/31/1 11/21/1 19/24/1 24/32/1
f 9/27/1 10/31/1 24/32/1 22/28/1
f 22/28/10 24/32/10 26/33/10 25/34/10
f 24/32/11 19/24/11 27/35/11 26/33/11
f 20/23/12 23/30/12 28/36/12 29/37/12
f 23/30/13 21/26/13 30/38/13 28/36/13
f 18/19/14 22/28/14 25/34/14 31/39/14
f 21/26/15 17/20/15 32/40/15 30/38/15
f 19/24/16 20/23/16 29/37/16 27/35/16
f 17/20/17 18/19/17 31/39/17 32/40/17
f 27/35/18 29/37/18 28/36/18 30/38/18
f 26/33/18 27/35/18 30/38/18 32/40/18
f 25/34/18 26/33/18 32/40/18 31/39/18
