# Blender3D v2.52 (sub 0) OBJ File: coin.blend
# www.blender3d.org
o Mesh
v 0.312368 0.166964 -0.066937
v 0.338939 -0.102816 -0.066937
v 0.166964 -0.312368 -0.066937
v -0.102816 -0.338939 -0.066937
v -0.312368 -0.166964 -0.066937
v -0.338939 0.102816 -0.066937
v -0.166964 0.312368 -0.066937
v 0.102817 0.338939 -0.066937
v 0.000000 0.000000 -0.066937
v 0.000000 0.000000 0.030069
v 0.102817 0.338939 0.030069
v -0.166964 0.312368 0.030069
v -0.338939 0.102816 0.030069
v -0.312368 -0.166964 0.030069
v -0.102816 -0.338939 0.030069
v 0.166964 -0.312368 0.030069
v 0.338939 -0.102816 0.030069
v 0.312368 0.166964 0.030069
vn -0.000000 -0.000000 -1.000000
vn -0.773010 0.634394 0.000000
vn -0.995185 -0.098016 0.000000
vn -0.634394 -0.773010 0.000000
vn 0.098017 -0.995185 0.000000
vn 0.773010 -0.634393 0.000000
vn 0.995185 0.098017 0.000000
vn 0.634394 0.773010 0.000000
vn -0.098016 0.995185 0.000000
vn -0.000000 -0.000000 1.000000
usemtl (null)
s off
f 5//1 6//1 9//1
f 6//1 7//1 9//1
f 7//1 8//1 9//1
f 1//1 9//1 8//1
f 1//1 2//1 9//1
f 2//1 3//1 9//1
f 3//1 4//1 9//1
f 4//1 5//1 9//1
f 7//2 6//2 13//2 12//2
f 6//3 5//3 14//3 13//3
f 5//4 4//4 15//4 14//4
f 4//5 3//5 16//5 15//5
f 3//6 2//6 17//6 16//6
f 2//7 1//7 18//7 17//7
f 1//8 8//8 11//8 18//8
f 8//9 7//9 12//9 11//9
f 10//10 13//10 14//10
f 10//10 12//10 13//10
f 10//10 11//10 12//10
f 11//10 10//10 18//10
f 10//10 17//10 18//10
f 10//10 16//10 17//10
f 10//10 15//10 16//10
f 10//10 14//10 15//10
