# This file uses centimeters as units for non-parametric coordinates.

mtllib CorridorGround.mtl
g default
v -10.392732 -9.383704 0.242471
v 10.041839 -9.383704 0.242471
v 8.488254 -9.383704 -63.433338
v -8.839147 -9.383704 -63.433338
v 8.488254 -9.383704 -254.102463
v -8.839147 -9.383704 -254.102463
v 8.488254 -9.383704 -381.831329
v -8.839147 -9.383704 -381.831329
v 10.041839 -9.383704 -429.037720
v -10.392732 -9.383704 -429.037720
vt 0.000000 0.000000
vt 1.000000 0.000000
vt 1.000000 1.000000
vt 0.000000 1.000000
vt 0.000000 0.000000
vt 1.000000 0.000000
vt 1.000000 1.000000
vt 0.000000 1.000000
vt 0.000000 0.000000
vt 1.000000 0.000000
vt 1.000000 1.000000
vt 0.000000 1.000000
vt 0.000000 0.000000
vt 1.000000 0.000000
vt 1.000000 1.000000
vt 0.000000 1.000000
vn 0.000000 1.000000 0.000000
vn 0.000000 1.000000 0.000000
vn 0.000000 1.000000 0.000000
vn 0.000000 1.000000 0.000000
vn 0.000000 1.000000 0.000000
vn 0.000000 1.000000 0.000000
vn 0.000000 1.000000 0.000000
vn 0.000000 1.000000 0.000000
vn 0.000000 1.000000 0.000000
vn 0.000000 1.000000 0.000000
vn 0.000000 1.000000 0.000000
vn 0.000000 1.000000 0.000000
vn 0.000000 1.000000 0.000000
vn 0.000000 1.000000 0.000000
vn 0.000000 1.000000 0.000000
vn 0.000000 1.000000 0.000000
g Road
usemtl CorridorGround:lambert3SG
f 1/1/1 2/2/2 3/3/3 4/4/4
f 4/5/5 3/6/6 5/7/7 6/8/8
f 6/9/9 5/10/10 7/11/11 8/12/12
f 8/13/13 7/14/14 9/15/15 10/16/16
g default
v -26.324211 -9.875383 0.242476
v 24.754732 -9.875383 0.242476
v 24.754732 -9.875383 -87.654556
v -26.324211 -9.875383 -87.654556
v 24.754732 -9.875383 -212.119461
v -26.324211 -9.875383 -212.119461
v 24.754732 -9.875383 -323.524536
v -26.324211 -9.875383 -323.524536
v 24.754732 -9.875383 -429.037842
v -26.324211 -9.875383 -429.037842
vt -0.000000 0.000000
vt 1.000000 0.000000
vt 1.000000 1.000000
vt -0.000000 1.000000
vt -0.000000 -0.000000
vt 1.000000 -0.000000
vt 1.000000 1.000000
vt -0.000000 1.000000
vt -0.000000 0.000000
vt 1.000000 0.000000
vt 1.000000 1.000000
vt -0.000000 1.000000
vt -0.000000 0.000000
vt 1.000000 0.000000
vt 1.000000 1.000000
vt -0.000000 1.000000
vn 0.000000 1.000000 0.000000
vn 0.000000 1.000000 0.000000
vn 0.000000 1.000000 0.000000
vn 0.000000 1.000000 0.000000
vn 0.000000 1.000000 0.000000
vn 0.000000 1.000000 0.000000
vn 0.000000 1.000000 0.000000
vn 0.000000 1.000000 0.000000
vn 0.000000 1.000000 0.000000
vn 0.000000 1.000000 0.000000
vn 0.000000 1.000000 0.000000
vn 0.000000 1.000000 0.000000
vn 0.000000 1.000000 0.000000
vn 0.000000 1.000000 0.000000
vn 0.000000 1.000000 0.000000
vn 0.000000 1.000000 0.000000
g Pavement
usemtl CorridorGround:lambert5SG
f 11/17/17 12/18/18 13/19/19 14/20/20
f 14/21/21 13/22/22 15/23/23 16/24/24
f 16/25/25 15/26/26 17/27/27 18/28/28
f 18/29/29 17/30/30 19/31/31 20/32/32
