# Blender3D v2.52 (sub 0) OBJ File: end.blend
# www.blender3d.org
o Mesh_Mesh.002_polySurface7
v -21.624632 -26.053646 -0.586198
v -21.624632 -39.536888 -0.586197
v 6.154064 -3.802730 -288.982422
v 4.206038 -3.802730 -288.982422
v 6.154064 -4.642612 -288.982422
v 4.206038 -4.642612 -288.982422
v -27.437883 -39.536888 -0.586197
v -27.437883 -26.053646 -0.586198
v 13.353484 -26.763712 -0.586198
v 13.353484 -40.246941 -0.586197
v 6.256651 1.250825 -289.999054
v 4.308627 1.250825 -289.999054
v 6.256651 0.410939 -289.999054
v 4.308627 0.410939 -289.999054
v 7.540232 -40.246941 -0.586197
v 7.540232 -26.763712 -0.586198
v -14.516198 -26.053646 -0.586198
v -14.516198 -39.536888 -0.586197
v 6.154064 -2.775720 -284.004547
v 4.206038 -2.775720 -284.004547
v 6.154064 -3.615605 -284.004547
v 4.206038 -3.615605 -284.004547
v -20.329453 -39.536888 -0.586197
v -20.329453 -26.053646 -0.586198
v 20.461918 -26.763712 -0.586198
v 20.461918 -40.246941 -0.586197
v 6.256651 2.277835 -288.982422
v 4.308627 2.277835 -288.982422
v 6.256651 1.437949 -288.982422
v 4.308627 1.437949 -288.982422
v 14.648664 -40.246941 -0.586197
v 14.648664 -26.763712 -0.586198
v -7.379009 -26.053646 -0.586198
v -7.379009 -39.536888 -0.586197
v 6.154064 -1.744557 -288.982422
v 4.206038 -1.744557 -288.982422
v 6.154064 -2.584445 -288.982422
v 4.206038 -2.584445 -288.982422
v -13.192292 -39.536888 -0.586197
v -13.192290 -26.053646 -0.586198
v 27.599110 -26.763712 -0.586198
v 27.599110 -40.246941 -0.586197
v 6.256651 3.308998 -284.004547
v 4.308627 3.308998 -284.004547
v 6.256651 2.469110 -284.004547
v 4.308627 2.469110 -284.004547
v 21.785822 -40.246941 -0.586197
v 21.785822 -26.763712 -0.586198
v -38.793156 -17.811449 -0.586199
v -26.925730 -17.811449 -0.586199
v 3.015226 -4.568618 -284.004547
v 3.015225 -6.283195 -284.004547
v 3.969464 -4.568618 -284.004547
v 3.969465 -6.283195 -284.004547
v -26.925730 -24.416199 -0.586199
v -38.793156 -24.416199 -0.586199
v 27.983425 -17.811449 -0.586199
v 39.850861 -17.811449 -0.586199
v 3.015225 5.079103 -284.004547
v 3.015225 3.364525 -284.004547
v 3.969463 5.079103 -284.004547
v 3.969463 3.364525 -284.004547
v 39.850861 -24.416199 -0.586199
v 27.983425 -24.416199 -0.586199
v -38.793156 -9.735099 -0.586200
v -26.925730 -9.735099 -0.586200
v 1.848373 -4.568618 -288.982422
v 1.848373 -6.283196 -288.982422
v 2.802618 -4.568618 -288.982422
v 2.802618 -6.283196 -288.982422
v -26.925730 -16.339888 -0.586199
v -38.793156 -16.339888 -0.586199
v 27.983425 -9.735099 -0.586200
v 39.850861 -9.735099 -0.586200
v 1.848373 5.079103 -288.982422
v 1.848373 3.364524 -288.982422
v 2.802617 5.079103 -288.982422
v 2.802618 3.364524 -288.982422
v 39.850861 -16.339888 -0.586199
v 27.983425 -16.339888 -0.586199
v -38.793156 -1.626219 -0.586201
v -26.925730 -1.626219 -0.586201
v 0.676822 -4.568618 -289.999054
v 0.676822 -6.283196 -289.999054
v 1.631061 -4.568618 -289.999054
v 1.631061 -6.283196 -289.999054
v -26.925730 -8.230971 -0.586200
v -38.793156 -8.230971 -0.586200
v 27.983425 -1.626219 -0.586201
v 39.850861 -1.626219 -0.586201
v 0.676822 5.079102 -289.999054
v 0.676822 3.364524 -289.999054
v 1.631061 5.079102 -289.999054
v 1.631061 3.364524 -289.999054
v 39.850861 -8.230971 -0.586200
v 27.983425 -8.230971 -0.586200
v -38.793156 7.039631 -0.586201
v -26.925730 7.039631 -0.586201
v -0.575198 -4.568618 -288.982422
v -0.575198 -6.283196 -288.982422
v 0.379040 -4.568618 -288.982422
v 0.379040 -6.283196 -288.982422
v -26.925730 0.434879 -0.586201
v -38.793156 0.434879 -0.586201
v 27.983425 7.039631 -0.586201
v 39.850861 7.039631 -0.586201
v -0.575199 5.079103 -288.982422
v -0.575199 3.364524 -288.982422
v 0.379040 5.079103 -288.982422
v 0.379040 3.364524 -288.982422
v 39.850861 0.434879 -0.586201
v 27.983425 0.434879 -0.586201
v -38.793156 15.115982 -0.586202
v -26.925730 15.115982 -0.586202
v -1.742050 -4.568618 -291.344940
v -1.742050 -6.283196 -291.344940
v -0.787812 -4.568618 -291.344940
v -0.787812 -6.283196 -291.344940
v -26.925730 8.511230 -0.586201
v -38.793156 8.511230 -0.586201
v 27.983425 15.115982 -0.586202
v 39.850861 15.115982 -0.586202
v -1.742050 5.079103 -284.447327
v -1.742050 3.364525 -284.447327
v -0.787812 5.079103 -284.447327
v -0.787812 3.364525 -284.447327
v 39.850861 8.511230 -0.586201
v 27.983425 8.511230 -0.586201
v -38.793156 23.224861 -0.586215
v -26.925730 23.224861 -0.586215
v -2.913602 -4.568617 -279.982819
v -2.913602 -6.283195 -279.982819
v -1.959363 -4.568617 -279.982788
v -1.959363 -6.283195 -279.982788
v -26.925730 16.620110 -0.586202
v -38.793156 16.620110 -0.586202
v 27.983425 23.224861 -0.586215
v 39.850861 23.224861 -0.586215
v -2.913602 5.079103 -288.982422
v -2.913602 3.364524 -288.982422
v -1.959364 5.079103 -288.982422
v -1.959364 3.364524 -288.982422
v 39.850861 16.620110 -0.586202
v 27.983425 16.620110 -0.586202
v -19.990685 39.042881 -0.586230
v -19.990685 25.559645 -0.586228
v -3.250927 -3.566660 -277.088959
v -5.198952 -3.566660 -277.088959
v -3.250927 -4.406545 -277.088959
v -5.198952 -4.406545 -277.088959
v -25.803932 25.559645 -0.586228
v -25.803932 39.042885 -0.586230
v 12.150655 36.693905 -0.586217
v 12.150653 23.210665 -0.586215
v -2.911552 1.077044 -273.770447
v -4.859578 1.077044 -273.770447
v -2.911550 0.237159 -273.770447
v -4.859578 0.237159 -273.770447
v 6.337404 23.210665 -0.586215
v 6.337404 36.693905 -0.586217
v -12.882252 39.042881 -0.586230
v -12.882252 25.559645 -0.586228
v -3.250927 -2.539651 -288.982422
v -5.198952 -2.539651 -288.982422
v -3.250927 -3.379537 -288.982422
v -5.198952 -3.379537 -288.982422
v -18.695505 25.559645 -0.586228
v -18.695505 39.042881 -0.586230
v 19.259089 36.693905 -0.586217
v 19.259085 23.210665 -0.586215
v -2.911552 2.104054 -275.589722
v -4.859578 2.104054 -275.589722
v -2.911552 1.264168 -275.589722
v -4.859578 1.264168 -275.589722
v 13.445835 23.210665 -0.586215
v 13.445835 36.693905 -0.586217
v -5.745061 39.042881 -0.586230
v -5.745061 25.559645 -0.586228
v -3.250927 -1.508488 -290.243683
v -5.198952 -1.508488 -290.243683
v -3.250927 -2.348383 -290.243683
v -5.198952 -2.348380 -290.243683
v -11.558376 25.559645 -0.586228
v -11.558376 39.042881 -0.586230
v 26.396275 36.693905 -0.586217
v 26.396275 23.210665 -0.586215
v -2.911552 3.135217 -275.559448
v -4.859578 3.135217 -275.559448
v -2.911552 2.295322 -275.559448
v -4.859578 2.295322 -275.559448
v 20.582962 23.210665 -0.586215
v 20.582962 36.693905 -0.586217
v -2.676938 -25.989828 -0.586198
v -2.676938 -39.473057 -0.586197
v 4.196818 -1.065211 -289.999054
v 6.144842 -1.065211 -289.999054
v 4.196818 -0.225329 -289.999054
v 6.144842 -0.225326 -289.999054
v 3.136314 -39.473057 -0.586197
v 3.136314 -25.989828 -0.586198
v -2.169682 36.693905 -0.586217
v -2.169682 23.210665 -0.586215
v -4.859578 -0.991924 -273.770447
v -2.911550 -0.991924 -273.770447
v -4.859578 -0.152039 -273.770447
v -2.911550 -0.152039 -273.770447
v 3.643567 23.210665 -0.586215
v 3.643570 36.693905 -0.586217
vn 0.984172 0.142191 0.105767
vn 0.000000 0.000000 -1.000000
vn -0.981972 -0.141873 -0.124912
vn 0.142196 -0.984212 -0.105387
vn -0.142730 0.987907 0.060560
vn 0.989670 0.142985 -0.010428
vn -0.989683 -0.142987 -0.009037
vn 0.141562 -0.979819 -0.141120
vn -0.142320 0.985062 0.096941
vn 0.986256 0.142492 0.083633
vn -0.984434 -0.142229 -0.103249
vn 0.142057 -0.983242 -0.114259
vn -0.142655 0.987382 0.068747
vn 0.989140 0.142909 -0.034330
vn -0.989615 -0.142977 0.014815
vn 0.141409 -0.978760 -0.148436
vn -0.142214 0.984334 0.104221
vn 0.988035 0.142749 0.058396
vn -0.986724 -0.142559 -0.077793
vn 0.141973 -0.982662 -0.119247
vn -0.142595 0.986967 0.074590
vn 0.987985 0.142742 -0.059253
vn -0.988953 -0.142882 0.039450
vn 0.141198 -0.977303 -0.157929
vn -0.142075 0.983373 0.113104
vn -0.142948 0.989411 0.025144
vn 0.142830 -0.988598 -0.047680
vn 0.983291 0.142064 0.113826
vn -0.978023 -0.141302 -0.153313
vn -0.142385 0.985514 0.092140
vn 0.142055 -0.983230 -0.114361
vn 0.983382 0.142077 -0.113023
vn -0.987085 -0.142612 0.072980
vn -0.142993 0.989721 -0.002420
vn 0.142965 -0.989530 -0.019769
vn 0.984355 0.142217 0.104017
vn -0.979555 -0.141524 -0.142977
vn -0.142703 0.987716 0.063669
vn 0.142467 -0.986085 -0.085675
vn 0.982697 0.141978 -0.118947
vn -0.986578 -0.142538 0.079667
vn -0.142930 0.989291 -0.029551
vn 0.142989 -0.989696 0.007448
vn 0.985175 0.142336 0.095762
vn -0.980704 -0.141690 -0.134701
vn -0.142898 0.989068 0.036398
vn 0.142749 -0.988032 -0.058437
vn 0.981789 0.141847 -0.126369
vn -0.985943 -0.142447 0.087318
vn -0.142746 0.988018 -0.058685
vn 0.142897 -0.989062 0.036569
vn 0.985918 0.142443 0.087611
vn -0.981736 -0.141839 -0.126794
vn -0.142989 0.989696 0.007432
vn 0.142930 -0.989290 -0.029612
vn 0.980639 0.141680 -0.135180
vn -0.985142 -0.142331 0.096108
vn -0.142476 0.986149 -0.084919
vn 0.142708 -0.987752 0.063088
vn 0.986627 0.142546 0.079043
vn -0.982808 -0.141994 -0.118013
vn -0.142964 0.989525 -0.020017
vn 0.142992 -0.989721 -0.002527
vn 0.979236 0.141478 -0.145194
vn -0.984186 -0.142193 0.105640
vn -0.142027 0.983039 -0.116028
vn 0.000032 0.000000 -1.000000
vn 0.142367 -0.985388 0.093498
vn 0.987009 0.142601 0.074012
vn -0.983201 -0.142051 -0.114616
vn -0.142835 0.988635 -0.046902
vn 0.142949 -0.989421 0.024753
vn 0.978415 0.141358 -0.150740
vn -0.983508 -0.142095 0.111898
vn 0.989014 0.142890 0.037856
vn -0.988048 -0.142751 -0.058159
vn 0.142042 -0.983140 0.115148
vn -0.141126 0.976805 -0.161044
vn 0.987082 0.142611 -0.073017
vn -0.988358 -0.142796 0.052518
vn 0.142589 -0.986926 0.075134
vn -0.141921 0.982300 -0.122252
vn 0.989647 0.142982 0.012435
vn -0.989218 -0.142920 -0.031953
vn 0.142225 -0.984405 0.103530
vn -0.141424 0.978860 -0.147756
vn 0.985026 0.142314 -0.097313
vn -0.986781 -0.142568 0.077062
vn 0.142669 -0.987480 0.067303
vn -0.142057 0.983247 -0.114217
vn 0.989658 0.142983 -0.011496
vn -0.989692 -0.142988 -0.007952
vn 0.142331 -0.985139 0.096142
vn -0.141579 0.979935 -0.140297
vn 0.982328 0.141924 -0.122022
vn -0.984570 -0.142248 0.101919
vn 0.142736 -0.987944 0.059933
vn -0.142173 0.984048 -0.106942
vn -0.142482 0.986192 0.084410
vn 0.141802 -0.981483 -0.128778
vn -0.988832 -0.142864 -0.042445
vn 0.989462 0.142955 0.023012
vn -0.141762 0.981202 -0.130945
vn 0.142488 -0.986229 0.083955
vn -0.989475 -0.142957 0.022408
vn 0.988809 0.142861 -0.042995
vn 0.000000 0.000000 1.000000
vn 0.000000 0.000002 1.000000
usemtl initialShadingGroup
s off
f 1//1 2//1 3//1 4//1
f 4//2 3//2 5//2 6//2
f 6//3 5//3 7//3 8//3
f 2//4 7//4 5//4 3//4
f 8//5 1//5 4//5 6//5
f 9//6 10//6 11//6 12//6
f 12//2 11//2 13//2 14//2
f 14//7 13//7 15//7 16//7
f 10//8 15//8 13//8 11//8
f 16//9 9//9 12//9 14//9
f 17//10 18//10 19//10 20//10
f 20//2 19//2 21//2 22//2
f 22//11 21//11 23//11 24//11
f 18//12 23//12 21//12 19//12
f 24//13 17//13 20//13 22//13
f 25//14 26//14 27//14 28//14
f 28//2 27//2 29//2 30//2
f 30//15 29//15 31//15 32//15
f 26//16 31//16 29//16 27//16
f 32//17 25//17 28//17 30//17
f 33//18 34//18 35//18 36//18
f 36//2 35//2 37//2 38//2
f 38//19 37//19 39//19 40//19
f 34//20 39//20 37//20 35//20
f 40//21 33//21 36//21 38//21
f 41//22 42//22 43//22 44//22
f 44//2 43//2 45//2 46//2
f 46//23 45//23 47//23 48//23
f 42//24 47//24 45//24 43//24
f 48//25 41//25 44//25 46//25
f 49//26 50//26 51//26 52//26
f 52//2 51//2 53//2 54//2
f 54//27 53//27 55//27 56//27
f 50//28 55//28 53//28 51//28
f 56//29 49//29 52//29 54//29
f 57//30 58//30 59//30 60//30
f 60//2 59//2 61//2 62//2
f 62//31 61//31 63//31 64//31
f 58//32 63//32 61//32 59//32
f 64//33 57//33 60//33 62//33
f 65//34 66//34 67//34 68//34
f 68//2 67//2 69//2 70//2
f 70//35 69//35 71//35 72//35
f 66//36 71//36 69//36 67//36
f 72//37 65//37 68//37 70//37
f 73//38 74//38 75//38 76//38
f 76//2 75//2 77//2 78//2
f 78//39 77//39 79//39 80//39
f 74//40 79//40 77//40 75//40
f 80//41 73//41 76//41 78//41
f 81//42 82//42 83//42 84//42
f 84//2 83//2 85//2 86//2
f 86//43 85//43 87//43 88//43
f 82//44 87//44 85//44 83//44
f 88//45 81//45 84//45 86//45
f 89//46 90//46 91//46 92//46
f 92//2 91//2 93//2 94//2
f 94//47 93//47 95//47 96//47
f 90//48 95//48 93//48 91//48
f 96//49 89//49 92//49 94//49
f 97//50 98//50 99//50 100//50
f 100//2 99//2 101//2 102//2
f 102//51 101//51 103//51 104//51
f 98//52 103//52 101//52 99//52
f 104//53 97//53 100//53 102//53
f 105//54 106//54 107//54 108//54
f 108//2 107//2 109//2 110//2
f 110//55 109//55 111//55 112//55
f 106//56 111//56 109//56 107//56
f 112//57 105//57 108//57 110//57
f 113//58 114//58 115//58 116//58
f 116//2 115//2 117//2 118//2
f 118//59 117//59 119//59 120//59
f 114//60 119//60 117//60 115//60
f 120//61 113//61 116//61 118//61
f 121//62 122//62 123//62 124//62
f 124//2 123//2 125//2 126//2
f 126//63 125//63 127//63 128//63
f 122//64 127//64 125//64 123//64
f 128//65 121//65 124//65 126//65
f 129//66 130//66 131//66 132//66
f 132//67 131//67 133//67 134//67
f 134//68 133//68 135//68 136//68
f 130//69 135//69 133//69 131//69
f 136//70 129//70 132//70 134//70
f 137//71 138//71 139//71 140//71
f 140//2 139//2 141//2 142//2
f 142//72 141//72 143//72 144//72
f 138//73 143//73 141//73 139//73
f 144//74 137//74 140//74 142//74
f 145//75 146//75 147//75 148//75
f 148//2 147//2 149//2 150//2
f 150//76 149//76 151//76 152//76
f 146//77 151//77 149//77 147//77
f 152//78 145//78 148//78 150//78
f 153//79 154//79 155//79 156//79
f 156//2 155//2 157//2 158//2
f 158//80 157//80 159//80 160//80
f 154//81 159//81 157//81 155//81
f 160//82 153//82 156//82 158//82
f 161//83 162//83 163//83 164//83
f 164//2 163//2 165//2 166//2
f 166//84 165//84 167//84 168//84
f 162//85 167//85 165//85 163//85
f 168//86 161//86 164//86 166//86
f 169//87 170//87 171//87 172//87
f 172//2 171//2 173//2 174//2
f 174//88 173//88 175//88 176//88
f 170//89 175//89 173//89 171//89
f 176//90 169//90 172//90 174//90
f 177//91 178//91 179//91 180//91
f 180//2 179//2 181//2 182//2
f 182//92 181//92 183//92 184//92
f 178//93 183//93 181//93 179//93
f 184//94 177//94 180//94 182//94
f 185//95 186//95 187//95 188//95
f 188//2 187//2 189//2 190//2
f 190//96 189//96 191//96 192//96
f 186//97 191//97 189//97 187//97
f 192//98 185//98 188//98 190//98
f 193//99 200//99 197//99 195//99
f 199//100 194//100 196//100 198//100
f 195//101 196//101 194//101 193//101
f 197//2 198//2 196//2 195//2
f 200//102 199//102 198//102 197//102
f 201//103 208//103 205//103 203//103
f 207//104 202//104 204//104 206//104
f 203//105 204//105 202//105 201//105
f 205//2 206//2 204//2 203//2
f 208//106 207//106 206//106 205//106
f 1//107 8//107 7//107 2//107
f 9//107 16//107 15//107 10//107
f 17//107 24//107 23//107 18//107
f 25//107 32//107 31//107 26//107
f 33//107 40//107 39//107 34//107
f 41//107 48//107 47//107 42//107
f 49//107 56//107 55//107 50//107
f 57//107 64//107 63//107 58//107
f 65//107 72//107 71//107 66//107
f 73//107 80//107 79//107 74//107
f 81//107 88//107 87//107 82//107
f 89//107 96//107 95//107 90//107
f 97//107 104//107 103//107 98//107
f 105//107 112//107 111//107 106//107
f 113//107 120//107 119//107 114//107
f 121//107 128//107 127//107 122//107
f 129//108 136//108 135//108 130//108
f 137//108 144//108 143//108 138//108
f 145//107 152//107 151//107 146//107
f 153//107 160//107 159//107 154//107
f 161//107 168//107 167//107 162//107
f 169//107 176//107 175//107 170//107
f 177//107 184//107 183//107 178//107
f 185//107 192//107 191//107 186//107
f 193//107 194//107 199//107 200//107
f 201//107 202//107 207//107 208//107
