# Blender3D v2.52 (sub 0) OBJ File: enemy.blend
# www.blender3d.org
o Cube
v 0.500000 -1.000000 -0.297701
v 0.500000 -1.000000 0.297701
v -0.500000 -1.000000 0.297701
v -0.500000 -1.000000 -0.297701
v 0.500000 1.000000 -1.000000
v 0.500000 1.000000 1.000001
v -0.500000 1.000000 1.000000
v -0.500000 1.000000 -1.000000
vn 0.000000 -1.000000 0.000000
vn 0.000000 1.000000 -0.000000
vn 1.000000 0.000000 0.000000
vn -0.000001 -0.331317 0.943520
vn -1.000000 -0.000000 -0.000000
vn 0.000000 -0.331316 -0.943520
usemtl Material
s off
f 1//1 2//1 3//1 4//1
f 5//2 8//2 7//2 6//2
f 1//3 5//3 6//3 2//3
f 2//4 6//4 7//4 3//4
f 3//5 7//5 8//5 4//5
f 5//6 1//6 4//6 8//6
