# Blender3D v2.52 (sub 0) OBJ File: menu.blend
# www.blender3d.org
o Cube
v 4.000000 -3.000000 -4.000000
v 4.000000 -3.000000 4.000000
v -4.000000 -3.000000 4.000000
v -3.999999 -3.000000 -4.000001
v 4.000002 3.000000 -3.999998
v 3.999997 3.000000 4.000002
v -4.000001 3.000000 3.999998
v -4.000000 3.000000 -4.000000
vt 0.936308 0.424682
vt 0.936308 0.204464
vt 0.716090 0.204464
vt 0.716090 0.424682
vt 0.936308 0.644900
vt 0.716090 0.644900
vt 0.634169 0.000027
vt 0.634169 0.499881
vt -0.001625 0.499881
vt -0.001624 0.000027
vt 0.634012 0.501164
vt 0.634012 1.001174
vt -0.000234 1.000000
vt -0.000234 0.499990
vn -0.000000 -1.000000 0.000000
vn 0.000000 1.000000 -0.000000
vn 1.000000 0.000000 0.000000
vn -0.000000 -0.000000 1.000000
vn -1.000000 -0.000000 -0.000000
vn 0.000000 0.000000 -1.000000
usemtl Material_menu.png
s off
f 1/1/1 2/2/1 3/3/1 4/4/1
f 5/5/2 8/6/2 7/4/2 6/1/2
f 1/7/3 5/8/3 6/9/3 2/10/3
f 2/1/4 6/5/4 7/6/4 3/4/4
f 3/11/5 7/12/5 8/13/5 4/14/5
f 5/1/6 1/2/6 4/3/6 8/4/6
