# Blender3D v2.52 (sub 0) OBJ File: plane.blend
# www.blender3d.org
o Mesh
v 1.000000 -0.000000 -1.000000
v 1.000000 0.000000 1.000000
v -0.000000 0.000000 1.000000
v 0.000000 -0.000000 -1.000000
v -1.000000 -0.000000 -1.000000
v -1.000000 0.000000 1.000000
v -1.000000 -0.008611 1.000000
v -1.000000 -0.008611 -1.000000
v 0.000000 -0.008611 -1.000000
v -0.000000 -0.008611 1.000000
v 1.000000 -0.008611 1.000000
v 1.000000 -0.008611 -1.000000
vt 0.500000 0.000000
vt 0.000000 1.000000
vt 0.000000 0.000000
vt 0.500000 1.000000
vt 1.000000 0.000000
vt 1.000000 1.000000
vn 0.000000 0.832026 0.554674
vn -0.408246 0.816492 -0.408246
vn -0.577349 0.577349 0.577349
vn 0.000000 0.832026 -0.554674
vn 0.408246 0.816492 0.408246
vn 0.577349 0.577349 -0.577349
vn -0.577349 -0.577349 0.577349
vn 0.000000 -0.832026 0.554674
vn -0.408246 -0.816492 -0.408246
vn 0.000000 -0.832026 -0.554674
vn 0.577349 -0.577349 -0.577349
vn 0.408246 -0.816492 0.408246
usemtl (null)
s 1
f 3/1/1 5/2/2 6/3/3
f 3/1/1 4/4/4 5/2/2
f 2/5/5 4/4/4 3/1/1
f 1/6/6 4/4/4 2/5/5
f 3/1/1 6/3/3 7/3/7 10/1/8
f 6/3/3 5/2/2 8/2/9 7/3/7
f 5/2/2 4/4/4 9/4/10 8/2/9
f 4/4/4 1/6/6 12/6/11 9/4/10
f 1/6/6 2/5/5 11/5/12 12/6/11
f 2/5/5 3/1/1 10/1/8 11/5/12
f 7/3/7 8/2/9 10/1/8
f 8/2/9 9/4/10 10/1/8
f 10/1/8 9/4/10 11/5/12
f 11/5/12 9/4/10 12/6/11
