# Blender3D v2.52 (sub 0) OBJ File: default.blend
# www.blender3d.org
o Cube
v 0.241668 -0.241668 -0.885226
v 0.241668 -0.241668 -0.074022
v -0.241668 -0.241668 -0.074022
v -0.241668 -0.241668 -0.885226
v 0.241668 0.241668 -0.885226
v 0.241668 0.241668 -0.074021
v -0.241668 0.241668 -0.074022
v -0.241668 0.241668 -0.885226
v 0.000000 -0.000000 -1.592210
v -0.000000 -0.241668 -0.074022
v 0.241668 -0.000000 -0.074021
v -0.241668 -0.000000 -0.074022
v -0.000000 0.241668 -0.074022
v -0.000000 0.765682 1.179562
v -0.765682 0.000000 1.179561
v 0.765682 0.000000 1.179562
v 0.000000 -0.765682 1.179561
v -0.241668 0.241668 1.179561
v 0.241668 0.241668 1.179562
v -0.241668 -0.241668 1.179561
v 0.241668 -0.241668 1.179561
v -0.120834 0.241668 1.179561
v 0.120834 0.241668 1.179562
v -0.241668 0.120834 1.179561
v -0.241668 -0.120834 1.179561
v 0.241668 0.120834 1.179562
v 0.241668 -0.120834 1.179562
v -0.120834 -0.241668 1.179561
v 0.120834 -0.241668 1.179561
vn -0.946244 0.000000 -0.323454
vn 0.000000 -0.946244 -0.323454
vn 0.000000 0.946244 -0.323454
vn 0.946244 0.000000 -0.323454
vn -0.000000 -1.000000 0.000000
vn 0.000000 1.000000 -0.000000
vn 1.000000 -0.000000 0.000000
vn -1.000000 -0.000000 -0.000000
vn -0.970159 0.223712 -0.093515
vn 0.970159 0.223712 -0.093515
vn -0.223712 0.970159 -0.093515
vn -0.223712 -0.970159 -0.093515
vn 0.223712 0.970159 -0.093515
vn 0.223712 -0.970159 -0.093515
vn -0.970159 -0.223712 -0.093515
vn 0.970159 -0.223712 -0.093515
vn -0.000001 -0.000000 1.000000
vn -0.000001 -0.000001 1.000000
vn -0.000002 -0.000001 1.000000
vn -0.000002 0.000001 1.000000
vn 0.000000 0.000000 1.000000
vn 0.000000 -0.000001 1.000000
usemtl Material
s off
f 4//1 8//1 9//1
f 1//2 4//2 9//2
f 5//3 9//3 8//3
f 1//4 9//4 5//4
f 4//5 1//5 10//5
f 10//5 1//5 2//5
f 10//5 3//5 4//5
f 13//6 5//6 8//6
f 7//6 13//6 8//6
f 13//6 6//6 5//6
f 11//7 1//7 5//7
f 6//7 11//7 5//7
f 2//7 1//7 11//7
f 12//8 8//8 4//8
f 3//8 12//8 4//8
f 12//8 7//8 8//8
f 22//6 13//6 7//6
f 18//6 22//6 7//6
f 22//9 14//9 13//9
f 23//6 6//6 13//6
f 14//10 23//10 13//10
f 23//6 19//6 6//6
f 24//8 7//8 12//8
f 15//11 24//11 12//11
f 24//8 18//8 7//8
f 25//8 12//8 3//8
f 20//8 25//8 3//8
f 25//12 15//12 12//12
f 26//7 11//7 6//7
f 19//7 26//7 6//7
f 26//13 16//13 11//13
f 27//7 2//7 11//7
f 16//14 27//14 11//14
f 27//7 21//7 2//7
f 28//5 3//5 10//5
f 17//15 28//15 10//15
f 28//5 20//5 3//5
f 29//5 10//5 2//5
f 21//5 29//5 2//5
f 29//16 17//16 10//16
f 17//17 29//17 28//17
f 16//18 26//18 27//18
f 15//17 25//17 24//17
f 14//17 22//17 23//17
f 19//19 23//19 26//19
f 18//20 24//20 22//20
f 20//21 28//21 25//21
f 21//22 27//22 29//22
f 25//18 28//18 29//18
f 22//17 24//17 25//17
f 22//17 26//17 23//17
f 26//22 29//22 27//22
f 25//17 29//17 26//17 22//17
