# This file uses centimeters as units for non-parametric coordinates.

mtllib ShortGround.mtl
g default
v -7.565060 -9.706251 5.797370
v 6.161021 -9.706251 5.797370
v -7.565060 -9.706251 -44.193848
v 6.161021 -9.706251 -44.193848
v -7.565060 -9.706251 -60.332642
v 6.161021 -9.706251 -60.332642
v -7.565060 -9.706258 -112.289826
v 6.161021 -9.706258 -112.289826
v -7.565060 -9.706258 -127.888680
v 6.161021 -9.706258 -127.888680
v -7.565060 -9.706258 -184.388970
v 6.161021 -9.706258 -184.388970
v -7.565060 -9.706264 -199.563347
v 6.161021 -9.706264 -199.563347
v -7.565060 -9.706264 -239.884637
v 6.161021 -9.706264 -239.884637
v -30.915005 -9.706251 -44.193848
v -30.915005 -9.706251 -60.332642
v -30.915005 -9.706258 -112.289826
v -30.915005 -9.706258 -127.888680
v -30.915005 -9.706258 -184.388970
v -30.915005 -9.706264 -199.563347
v 33.233421 -9.706251 -44.193848
v 33.233421 -9.706251 -60.332642
v 33.233421 -9.706258 -112.289826
v 33.233421 -9.706258 -127.888680
v 33.233412 -9.706258 -184.388970
v 33.233412 -9.706264 -199.563347
vt 0.000000 0.000000
vt 1.000000 0.000000
vt 0.070201 0.000000
vt 0.929799 0.000000
vt 0.929799 1.000000
vt 0.070201 1.000000
vt 0.071371 0.000000
vt 0.928629 0.000000
vt 0.928629 1.000000
vt 0.071371 1.000000
vt 0.070201 0.000000
vt 0.929799 0.000000
vt 0.929799 0.999999
vt 0.070201 0.999999
vt 0.000000 0.000000
vt 1.000000 0.000000
vt 0.000000 0.000000
vt 1.000000 0.000000
vt 1.000000 1.000000
vt 0.000000 1.000000
vt 0.000000 0.000000
vt 1.000000 0.000000
vt 1.000000 1.000000
vt 0.000000 1.000000
vt 0.000000 0.000000
vt 1.000000 0.000000
vt 1.000000 1.000000
vt 0.000000 1.000000
vt 0.000000 0.000000
vt 1.000000 0.000000
vt 1.000000 1.000000
vt 0.000000 1.000000
vt 0.000000 0.000000
vt 1.000000 0.000000
vt 1.000000 1.000000
vt 0.000000 1.000000
vt 0.000000 0.000000
vt 1.000000 0.000000
vt 1.000000 1.000000
vt 0.000000 1.000000
vt 1.000000 1.000000
vt 0.000000 1.000000
vt 0.000000 0.000000
vt 1.000000 0.000000
vt 1.000000 1.000000
vt 0.000000 1.000000
vt 0.000000 -0.000000
vt 1.000000 -0.000000
vt 1.000000 1.000000
vt 0.000000 1.000000
vt 1.000000 1.000000
vt 0.000000 1.000000
vn 0.000000 1.000000 0.000000
vn 0.000000 1.000000 0.000000
vn 0.000000 1.000000 0.000000
vn 0.000000 1.000000 0.000000
vn 0.000000 1.000000 -0.000000
vn 0.000000 1.000000 -0.000000
vn 0.000000 1.000000 -0.000000
vn 0.000000 1.000000 -0.000000
vn 0.000000 1.000000 0.000000
vn 0.000000 1.000000 0.000000
vn 0.000000 1.000000 -0.000000
vn 0.000000 1.000000 -0.000000
vn 0.000000 1.000000 -0.000000
vn 0.000000 1.000000 -0.000000
vn 0.000000 1.000000 0.000000
vn 0.000000 1.000000 0.000000
vn 0.000000 1.000000 0.000000
vn 0.000000 1.000000 0.000000
vn 0.000000 1.000000 0.000000
vn 0.000000 1.000000 0.000000
vn 0.000000 1.000000 -0.000000
vn 0.000000 1.000000 -0.000000
vn 0.000000 1.000000 0.000000
vn 0.000000 1.000000 0.000000
vn 0.000000 1.000000 0.000000
vn 0.000000 1.000000 0.000000
vn 0.000000 1.000000 -0.000000
vn 0.000000 1.000000 -0.000000
g Road
usemtl lambert3SG
f 1/1/1 2/2/2 4/41/3 3/42/4
f 3/3/4 4/4/3 6/5/5 5/6/6
f 5/43/6 6/44/5 8/45/7 7/46/8
f 7/7/8 8/8/7 10/9/9 9/10/10
f 9/47/10 10/48/9 12/49/11 11/50/12
f 11/11/12 12/12/11 14/13/13 13/14/14
f 13/15/14 14/16/13 16/51/15 15/52/16
f 3/17/4 5/18/6 18/19/17 17/20/18
f 7/21/8 9/22/10 20/23/19 19/24/20
f 11/25/12 13/26/14 22/27/21 21/28/22
f 6/29/5 4/30/3 23/31/23 24/32/24
f 10/33/9 8/34/7 25/35/25 26/36/26
f 14/37/13 12/38/11 27/39/27 28/40/28
g default
v -31.522561 -10.945354 5.769977
v 37.493072 -10.945354 5.769977
v -31.522561 -10.945354 -242.686307
v 37.493072 -10.945354 -242.686307
vt 0.000000 0.000000
vt 0.277778 0.000000
vt 0.000000 1.000000
vt 0.277778 1.000000
vn 0.000000 1.000000 0.000000
vn 0.000000 1.000000 0.000000
vn 0.000000 1.000000 0.000000
vn 0.000000 1.000000 0.000000
g Pavement
usemtl lambert5SG
f 29/53/29 30/54/30 32/56/31 31/55/32
