# This file uses centimeters as units for non-parametric coordinates.

mtllib SmallMonument.mtl
g default
v 11.633600 -10.997318 2.504082
v 16.614929 -10.997318 2.504082
v 14.124263 16.722935 0.026738
v 11.633600 -10.997318 -2.450607
v 16.614929 -10.997318 -2.450607
v 15.465545 13.592490 1.360847
v 12.782982 13.592490 1.360847
v 12.782982 13.592490 -1.307372
v 15.465545 13.592490 -1.307372
vt 0.471888 0.993701
vt 0.078310 0.995180
vt 0.165841 0.121298
vt 0.557108 0.014095
vt 0.950045 0.014095
vt 0.377791 0.120502
vt 0.078310 0.995180
vt 0.471888 0.993701
vt 0.377791 0.120502
vt 0.165841 0.121298
vt 0.859379 0.876158
vt 0.647773 0.876158
vt 0.271398 0.009692
vt 0.647773 0.876158
vt 0.859379 0.876158
vt 0.950045 0.014095
vt 0.557108 0.014095
vt 0.753576 0.985905
vn 0.000000 0.046442 0.998921
vn 0.000000 0.046442 0.998921
vn 0.000000 0.046442 0.998921
vn 0.000000 0.046442 0.998921
vn 0.000000 0.046442 -0.998921
vn 0.000000 0.046442 -0.998921
vn 0.000000 0.046442 -0.998921
vn 0.000000 0.046442 -0.998921
vn 0.998909 0.046691 0.000000
vn 0.998909 0.046691 0.000000
vn 0.998909 0.046691 0.000000
vn 0.998909 0.046691 0.000000
vn -0.998909 0.046691 0.000000
vn -0.998909 0.046691 0.000000
vn -0.998909 0.046691 0.000000
vn -0.998909 0.046691 0.000000
vn 0.000000 0.392054 0.919942
vn 0.000000 0.392054 0.919942
vn 0.000000 0.392054 0.919942
vn -0.919181 0.393835 0.000000
vn -0.919181 0.393835 0.000000
vn -0.919181 0.393835 0.000000
vn 0.000000 0.392054 -0.919942
vn 0.000000 0.392054 -0.919942
vn 0.000000 0.392054 -0.919942
vn 0.919181 0.393835 0.000000
vn 0.919181 0.393835 0.000000
vn 0.919181 0.393835 0.000000
g pCube2
usemtl lambert2SG
f 1/4/1 2/5/2 6/11/3 7/12/4
f 8/14/5 9/15/6 5/16/7 4/17/8
f 2/1/9 5/2/10 9/3/11 6/6/12
f 4/7/13 1/8/14 7/9/15 8/10/16
f 7/12/17 6/11/18 3/18/19
f 8/10/20 7/9/21 3/13/22
f 3/18/23 9/15/24 8/14/25
f 6/6/26 9/3/27 3/13/28
