# Blender3D v2.52 (sub 0) OBJ File: <memory1>
# www.blender3d.org
o Mesh
v 5.000000 36.104836 -5.000001
v 5.000000 36.104836 4.999999
v -5.000000 36.104836 4.999998
v -4.999998 36.104836 -5.000003
v 5.000002 -11.197792 -4.999997
v 4.999997 -11.197792 5.000003
v -5.000002 -11.197792 4.999999
v -5.000000 -11.197792 -5.000000
v -0.000000 44.753838 -0.000003
vn 0.000000 1.000000 0.000000
vn -1.000000 0.000000 -0.000000
vn 0.000000 -0.000000 -1.000000
vn 1.000000 -0.000000 0.000000
vn -0.000000 0.000000 1.000000
vn -0.865744 -0.500488 -0.000000
vn -0.000000 -0.500488 0.865744
vn 0.000000 -0.500488 -0.865744
vn 0.865744 -0.500488 0.000000
usemtl (null)
s off
f 5//1 8//1 7//1 6//1
f 1//2 5//2 6//2 2//2
f 2//3 6//3 7//3 3//3
f 3//4 7//4 8//4 4//4
f 5//5 1//5 4//5 8//5
f 1//6 2//6 9//6
f 1//7 9//7 4//7
f 2//8 3//8 9//8
f 3//9 4//9 9//9
