# This file uses centimeters as units for non-parametric coordinates.

mtllib tree.mtl
g default
v -0.738786 0.000000 -0.211165
v -0.479285 0.000000 0.238305
v -0.479285 0.566554 0.238305
v -0.738786 0.488366 -0.211165
v -0.479285 0.000000 -0.660634
v 0.039717 0.000000 0.238305
v 0.299219 0.000000 -0.211165
v 0.077583 0.000000 0.713330
v -0.270109 0.000000 0.778201
v 0.039717 0.566554 0.238305
v 0.077583 0.297454 0.713330
v -0.270109 0.297454 0.778201
v 0.290744 0.000000 1.061864
v -1.008854 0.000000 -0.466600
v -0.749353 0.000000 -0.816558
v -1.008854 0.395963 -0.466600
v -0.479285 0.566554 -0.660634
v -0.749353 0.322994 -0.816558
v -1.176979 0.000000 -0.647062
v -1.080513 0.000000 -0.894026
v -1.176979 0.296451 -0.647062
v -1.080513 0.136766 -0.894026
v -1.342152 0.000000 -0.898060
v 0.486455 0.000000 -0.196324
v 0.329853 0.000000 0.172619
v 0.299219 0.566554 -0.211165
v 0.486455 0.346088 -0.196324
v 0.329853 0.378956 0.172619
v 0.902429 -0.000307 -0.103844
v 0.638688 -0.000307 0.261444
v 0.902429 0.212852 -0.103844
v 0.638688 0.247580 0.261444
v 1.015783 -0.000307 0.505277
v -0.519448 5.224110 -0.502055
v -0.738425 5.159392 -0.129008
v -0.519367 5.204937 0.246816
v -0.087322 5.185066 0.246260
v 0.128660 5.184717 -0.128452
v -0.087403 5.204239 -0.502610
v -0.759623 1.970678 -0.309014
v -0.523045 2.100572 -0.696896
v -0.522958 1.958095 0.099795
v -0.056184 1.936962 0.095965
v 0.177159 1.997635 -0.304296
v 0.039718 0.566554 -0.660634
v -0.056271 2.079440 -0.700726
v -0.731045 3.401234 -0.174024
v -0.512068 3.465951 -0.547071
v -0.511988 3.446778 0.201800
v -0.079943 3.426907 0.201244
v 0.136040 3.426558 -0.173468
v -0.080023 3.446080 -0.547626
v -0.437752 3.770152 -0.539290
v -0.156922 3.757236 -0.539651
v -0.442548 4.597980 -0.510030
v -0.161719 4.585064 -0.510391
v -0.437788 4.256799 -0.868235
v -0.156959 4.248478 -0.868478
v -0.442585 4.683134 -0.849383
v -0.161756 4.674812 -0.849626
v -0.437864 5.079629 -1.556833
v -0.157035 5.075319 -1.556973
v -0.442661 5.351880 -1.547069
v -0.161832 5.347572 -1.547210
v -0.038085 0.186650 -0.957566
v -0.038085 0.004570 -0.957566
v 0.250645 0.268961 -0.916592
v 0.250645 0.004570 -0.916592
v 0.161510 0.004570 -1.326267
vt 0.486105 0.000057
vt 0.314475 0.000057
vt 0.314475 0.105912
vt 0.486105 0.091303
vt 0.314475 0.000057
vt 0.314475 0.105912
vt 0.133087 0.055634
vt 0.133087 0.000057
vt 0.108316 0.055634
vt 0.108316 0.000057
vt 0.000000 0.000057
vt 0.583642 0.074039
vt 0.583642 0.000057
vt 0.657734 0.105912
vt 0.717273 0.060405
vt 0.657734 0.000057
vt 0.717273 0.000057
vt 0.652551 0.055446
vt 0.652551 0.000057
vt 0.746855 0.025611
vt 0.746855 0.000057
vt 0.748395 0.000057
vt 0.486105 0.000057
vt 0.486105 0.105912
vt 0.480438 0.064720
vt 0.480438 0.000057
vt 0.339557 0.070861
vt 0.339557 0.000057
vt 0.445124 0.039827
vt 0.445124 0.000000
vt 0.305640 0.046315
vt 0.305640 0.000000
vt 0.212532 0.000000
vt 0.523468 0.368258
vt 0.671581 0.392527
vt 0.367365 0.365907
vt 0.368828 0.361959
vt 0.521667 0.373294
vt 0.657734 0.105912
vt 0.673043 0.388579
vt 0.471922 0.635542
vt 0.614370 0.647634
vt 0.328415 0.644052
vt 0.328627 0.640339
vt 0.471710 0.640274
vt 0.614582 0.643921
vt 0.454733 0.964036
vt 0.597181 0.976128
vt 0.311225 0.972545
vt 0.311437 0.968832
vt 0.454521 0.968767
vt 0.597393 0.972415
vt 0.611399 0.704471
vt 0.611537 0.702057
vt 0.600226 0.859142
vt 0.600364 0.856728
vt 0.737006 0.795396
vt 0.737099 0.793841
vt 0.729807 0.875052
vt 0.729900 0.873497
vt 0.999946 0.949133
vt 1.000000 0.948328
vt 0.996218 1.000000
vt 0.996272 0.999195
vt 0.771117 0.034931
vt 0.771117 0.000911
vt 0.755471 0.050310
vt 0.755471 0.000911
vt 0.911905 0.000911
vn -0.432161 -0.834729 0.341269
vn -0.499265 -0.832808 0.239091
vn -0.659346 0.253639 0.707764
vn -0.941429 0.225909 0.250352
vn 0.284754 -0.935427 0.209502
vn 0.603884 0.396349 0.691543
vn 0.754284 0.632661 0.175487
vn 0.663076 -0.716863 -0.215493
vn 0.603884 0.396349 0.691543
vn -0.659346 0.253639 0.707764
vn -0.396705 0.537447 0.744161
vn 0.754284 0.632661 0.175487
vn -0.659346 0.253639 0.707764
vn -0.499265 -0.832808 0.239091
vn -0.505745 -0.730957 0.458174
vn -0.396705 0.537447 0.744161
vn 0.663076 -0.716863 -0.215493
vn 0.754284 0.632661 0.175487
vn 0.458421 -0.188188 0.868582
vn 0.754284 0.632661 0.175487
vn -0.396705 0.537447 0.744161
vn 0.458421 -0.188188 0.868582
vn -0.396705 0.537447 0.744161
vn -0.505745 -0.730957 0.458174
vn 0.458421 -0.188188 0.868582
vn -0.432161 -0.834729 0.341269
vn -0.941429 0.225909 0.250352
vn -0.735047 0.629605 0.251601
vn -0.501756 -0.707283 0.497988
vn -0.941429 0.225909 0.250352
vn -0.277548 0.310009 -0.909319
vn 0.036139 0.563715 -0.825178
vn -0.735047 0.629605 0.251601
vn -0.277548 0.310009 -0.909319
vn -0.012117 -0.919606 -0.392656
vn 0.258698 -0.710925 -0.653958
vn 0.036139 0.563715 -0.825178
vn -0.501756 -0.707283 0.497988
vn -0.735047 0.629605 0.251601
vn -0.810769 0.582455 0.058303
vn -0.555005 -0.708354 0.436123
vn -0.735047 0.629605 0.251601
vn 0.036139 0.563715 -0.825178
vn -0.104490 0.452756 -0.885491
vn -0.810769 0.582455 0.058303
vn 0.036139 0.563715 -0.825178
vn 0.258698 -0.710925 -0.653958
vn 0.086230 -0.709139 -0.699776
vn -0.104490 0.452756 -0.885491
vn -0.555005 -0.708354 0.436123
vn -0.810769 0.582455 0.058303
vn -0.735079 -0.179275 -0.653850
vn -0.810769 0.582455 0.058303
vn -0.104490 0.452756 -0.885491
vn -0.735079 -0.179275 -0.653850
vn -0.104490 0.452756 -0.885491
vn 0.086230 -0.709139 -0.699776
vn -0.735079 -0.179275 -0.653850
vn 0.252774 -0.934204 -0.251732
vn 0.878682 0.369159 -0.302720
vn 0.481016 0.633629 -0.605919
vn 0.104522 -0.707914 -0.698522
vn 0.878682 0.369159 -0.302720
vn 0.603884 0.396349 0.691543
vn 0.301493 0.551799 0.777573
vn 0.481016 0.633629 -0.605919
vn 0.603884 0.396349 0.691543
vn 0.284754 -0.935427 0.209502
vn -0.020237 -0.718374 0.695363
vn 0.301493 0.551799 0.777573
vn 0.104522 -0.707914 -0.698522
vn 0.481016 0.633629 -0.605919
vn 0.697795 0.650684 -0.299487
vn 0.460523 -0.767919 -0.445218
vn 0.481016 0.633629 -0.605919
vn 0.301493 0.551799 0.777573
vn -0.025319 0.649969 0.759539
vn 0.697795 0.650684 -0.299487
vn 0.301493 0.551799 0.777573
vn -0.020237 -0.718374 0.695363
vn -0.291534 -0.710942 0.639976
vn -0.025319 0.649969 0.759539
vn 0.460523 -0.767919 -0.445218
vn 0.697795 0.650684 -0.299487
vn 0.697733 -0.100654 0.709252
vn 0.697795 0.650684 -0.299487
vn -0.025319 0.649969 0.759539
vn 0.697733 -0.100654 0.709252
vn -0.025319 0.649969 0.759539
vn -0.291534 -0.710942 0.639976
vn 0.697733 -0.100654 0.709252
vn -0.277548 0.310009 -0.909319
vn -0.941429 0.225909 0.250352
vn -0.999981 0.004176 -0.004483
vn -0.496340 0.030794 -0.867582
vn -0.941429 0.225909 0.250352
vn -0.659346 0.253639 0.707764
vn -0.498572 0.007100 0.866819
vn -0.999981 0.004176 -0.004483
vn -0.659346 0.253639 0.707764
vn 0.603884 0.396349 0.691543
vn 0.499574 0.034618 0.865579
vn -0.498572 0.007100 0.866819
vn 0.603884 0.396349 0.691543
vn 0.878682 0.369159 -0.302720
vn 0.998328 0.057738 0.002614
vn 0.499574 0.034618 0.865579
vn 0.878682 0.369159 -0.302720
vn 0.366266 0.405762 -0.837381
vn 0.499302 0.056923 -0.864556
vn 0.998328 0.057738 0.002614
vn 0.366266 0.405762 -0.837381
vn -0.277548 0.310009 -0.909319
vn -0.496340 0.030794 -0.867582
vn 0.499302 0.056923 -0.864556
vn -0.496340 0.030794 -0.867582
vn -0.999981 0.004176 -0.004483
vn -0.999970 0.007774 0.000654
vn -0.384148 0.054710 -0.921649
vn -0.999981 0.004176 -0.004483
vn -0.498572 0.007100 0.866819
vn -0.497408 -0.040569 0.866568
vn -0.999970 0.007774 0.000654
vn -0.498572 0.007100 0.866819
vn 0.499574 0.034618 0.865579
vn 0.500440 -0.036191 0.865015
vn -0.497408 -0.040569 0.866568
vn 0.499574 0.034618 0.865579
vn 0.998328 0.057738 0.002614
vn 0.999866 0.016303 0.001315
vn 0.500440 -0.036191 0.865015
vn 0.998328 0.057738 0.002614
vn 0.499302 0.056923 -0.864556
vn 0.386295 0.057969 -0.920552
vn 0.999866 0.016303 0.001315
vn 0.499302 0.056923 -0.864556
vn -0.496340 0.030794 -0.867582
vn -0.384148 0.054710 -0.921649
vn 0.386295 0.057969 -0.920552
vn -0.384148 0.054710 -0.921649
vn -0.999970 0.007774 0.000654
vn -0.867367 0.497503 0.012831
vn -0.287490 0.373965 -0.881759
vn -0.999970 0.007774 0.000654
vn -0.497408 -0.040569 0.866568
vn -0.432965 0.478141 0.764148
vn -0.867367 0.497503 0.012831
vn -0.497408 -0.040569 0.866568
vn 0.500440 -0.036191 0.865015
vn 0.431178 0.482517 0.762406
vn -0.432965 0.478141 0.764148
vn 0.500440 -0.036191 0.865015
vn 0.999866 0.016303 0.001315
vn 0.863988 0.503349 0.012795
vn 0.431178 0.482517 0.762406
vn 0.999866 0.016303 0.001315
vn 0.386295 0.057969 -0.920552
vn 0.285976 0.376832 -0.881031
vn 0.863988 0.503349 0.012795
vn 0.386295 0.057969 -0.920552
vn -0.384148 0.054710 -0.921649
vn -0.316845 -0.168309 -0.933425
vn 0.305451 -0.165104 -0.937785
vn -0.384148 0.054710 -0.921649
vn -0.287490 0.373965 -0.881759
vn -0.408216 0.452683 -0.792741
vn -0.316845 -0.168309 -0.933425
vn -0.287490 0.373965 -0.881759
vn 0.285976 0.376832 -0.881031
vn 0.435987 0.453445 -0.777370
vn -0.408216 0.452683 -0.792741
vn 0.285976 0.376832 -0.881031
vn 0.386295 0.057969 -0.920552
vn 0.305451 -0.165104 -0.937785
vn 0.435987 0.453445 -0.777370
vn 0.305451 -0.165104 -0.937785
vn -0.316845 -0.168309 -0.933425
vn -0.710634 -0.442880 -0.546678
vn 0.706265 -0.443645 -0.551697
vn -0.316845 -0.168309 -0.933425
vn -0.408216 0.452683 -0.792741
vn -0.713984 0.612473 0.339270
vn -0.710634 -0.442880 -0.546678
vn -0.408216 0.452683 -0.792741
vn 0.435987 0.453445 -0.777370
vn 0.723574 0.601639 0.338336
vn -0.713984 0.612473 0.339270
vn 0.435987 0.453445 -0.777370
vn 0.305451 -0.165104 -0.937785
vn 0.706265 -0.443645 -0.551697
vn 0.723574 0.601639 0.338336
vn 0.706265 -0.443645 -0.551697
vn -0.710634 -0.442880 -0.546678
vn -0.707011 -0.518745 -0.480666
vn 0.708370 -0.517526 -0.479978
vn -0.710634 -0.442880 -0.546678
vn -0.713984 0.612473 0.339270
vn -0.707924 0.527267 0.469929
vn -0.707011 -0.518745 -0.480666
vn -0.713984 0.612473 0.339270
vn 0.723574 0.601639 0.338336
vn 0.706786 0.528039 0.470774
vn -0.707924 0.527267 0.469929
vn 0.723574 0.601639 0.338336
vn 0.706265 -0.443645 -0.551697
vn 0.708370 -0.517526 -0.479978
vn 0.706786 0.528039 0.470774
vn -0.012117 -0.919606 -0.392656
vn -0.277548 0.310009 -0.909319
vn -0.303640 0.545875 -0.780912
vn -0.513189 -0.716655 -0.472274
vn -0.303640 0.545875 -0.780912
vn 0.366266 0.405762 -0.837381
vn 0.878682 0.369159 -0.302720
vn 0.725007 0.526343 -0.444215
vn 0.878682 0.369159 -0.302720
vn 0.252774 -0.934204 -0.251732
vn 0.699838 -0.706729 -0.103735
vn 0.725007 0.526343 -0.444215
vn -0.303640 0.545875 -0.780912
vn 0.725007 0.526343 -0.444215
vn -0.058623 -0.128608 -0.989961
vn 0.725007 0.526343 -0.444215
vn 0.699838 -0.706729 -0.103735
vn -0.058623 -0.128608 -0.989961
vn -0.513189 -0.716655 -0.472274
vn -0.303640 0.545875 -0.780912
vn -0.058623 -0.128608 -0.989961
vn -0.303640 0.545875 -0.780912
vn -0.277548 0.310009 -0.909319
vn 0.366266 0.405762 -0.837381
s off
g pCylinder1
usemtl lambert3SG
f 1/1/1 2/2/2 3/3/3 4/4/4
f 6/5/5 10/6/6 11/7/7 8/8/8
f 10/6/9 3/3/10 12/9/11 11/7/12
f 3/3/13 2/2/14 9/10/15 12/9/16
f 8/8/17 11/7/18 13/11/19
f 11/7/20 12/9/21 13/11/22
f 12/9/23 9/10/24 13/11/25
f 1/1/26 4/4/27 16/12/28 14/13/29
f 4/4/30 17/14/31 18/15/32 16/12/33
f 17/14/34 5/16/35 15/17/36 18/15/37
f 14/13/38 16/12/39 21/18/40 19/19/41
f 16/12/42 18/15/43 22/20/44 21/18/45
f 18/15/46 15/17/47 20/21/48 22/20/49
f 19/19/50 21/18/51 23/22/52
f 21/18/53 22/20/54 23/22/55
f 22/20/56 20/21/57 23/22/58
f 7/23/59 26/24/60 27/25/61 24/26/62
f 26/24/63 10/6/64 28/27/65 27/25/66
f 10/6/67 6/5/68 25/28/69 28/27/70
f 24/26/71 27/25/72 31/29/73 29/30/74
f 27/25/75 28/27/76 32/31/77 31/29/78
f 28/27/79 25/28/80 30/32/81 32/31/82
f 29/30/83 31/29/84 33/33/85
f 31/29/86 32/31/87 33/33/88
f 32/31/89 30/32/90 33/33/91
f 17/14/92 4/4/93 40/34/94 41/35/95
f 4/4/96 3/3/97 42/36/98 40/34/99
f 3/3/100 10/6/101 43/37/102 42/36/103
f 10/6/104 26/24/105 44/38/106 43/37/107
f 26/24/108 45/39/109 46/40/110 44/38/111
f 45/39/112 17/14/113 41/35/114 46/40/115
f 41/35/116 40/34/117 47/41/118 48/42/119
f 40/34/120 42/36/121 49/43/122 47/41/123
f 42/36/124 43/37/125 50/44/126 49/43/127
f 43/37/128 44/38/129 51/45/130 50/44/131
f 44/38/132 46/40/133 52/46/134 51/45/135
f 46/40/136 41/35/137 48/42/138 52/46/139
f 48/42/140 47/41/141 35/47/142 34/48/143
f 47/41/144 49/43/145 36/49/146 35/47/147
f 49/43/148 50/44/149 37/50/150 36/49/151
f 50/44/152 51/45/153 38/51/154 37/50/155
f 51/45/156 52/46/157 39/52/158 38/51/159
f 52/46/160 48/42/161 53/53/162 54/54/163
f 48/42/164 34/48/165 55/55/166 53/53/167
f 34/48/168 39/52/169 56/56/170 55/55/171
f 39/52/172 52/46/173 54/54/174 56/56/175
f 54/54/176 53/53/177 57/57/178 58/58/179
f 53/53/180 55/55/181 59/59/182 57/57/183
f 55/55/184 56/56/185 60/60/186 59/59/187
f 56/56/188 54/54/189 58/58/190 60/60/191
f 58/58/192 57/57/193 61/61/194 62/62/195
f 57/57/196 59/59/197 63/63/198 61/61/199
f 59/59/200 60/60/201 64/64/202 63/63/203
f 60/60/204 58/58/205 62/62/206 64/64/207
f 5/16/208 17/14/209 65/65/210 66/66/211
f 65/65/212 45/39/213 26/24/214 67/67/215
f 26/24/216 7/23/217 68/68/218 67/67/219
f 65/65/220 67/67/221 69/69/222
f 67/67/223 68/68/224 69/69/225
f 66/66/226 65/65/227 69/69/228
f 65/65/229 17/14/230 45/39/231
g default
v 0.017732 4.835255 -0.439800
v -0.283622 4.835255 -0.564625
v -0.279036 5.097861 -2.346212
v 1.210368 5.407785 -1.673800
v -0.584976 4.835255 -0.439800
v -1.833660 5.301676 -1.729847
v -0.709801 4.835255 -0.138446
v -2.475707 5.301676 -0.179810
v -0.584976 4.835255 0.162908
v -1.833660 5.301676 1.370228
v -0.294848 4.915681 0.260819
v -0.291025 5.378550 1.965337
v -0.010025 4.913095 0.135150
v 1.069694 5.641769 1.173484
v 0.142557 4.835255 -0.138446
v 1.908462 5.301676 -0.179810
v -0.287705 6.108387 -2.820998
v 1.661458 6.303892 -2.122563
v -2.308844 6.238182 -2.205032
v -3.147718 6.238182 -0.179810
v -2.308844 6.238182 1.845412
v -0.283622 6.238182 2.684287
v 1.666813 6.300608 1.769279
v 2.580474 6.238182 -0.179810
v -0.283334 7.069752 -3.200111
v 1.904588 7.069017 -2.367701
v -2.475707 7.068801 -2.371894
v -3.383698 7.068801 -0.179810
v -2.475707 7.068801 2.012275
v -0.283622 7.068801 2.920266
v 1.735451 7.083873 1.830504
v 2.948899 7.068801 -0.179810
v -0.282392 7.834818 -2.928291
v 1.640893 7.811143 -2.087827
v -2.005707 7.644325 -1.884666
v -3.147718 7.899420 -0.179810
v -2.308844 7.899420 1.845412
v -0.283622 7.899420 2.684287
v 1.703485 7.872164 1.803531
v 2.702025 7.972330 -0.183253
v -0.282663 8.496790 -2.293563
v 1.266415 8.603584 -1.729847
v -1.833660 8.603584 -1.729847
v -2.432157 8.551387 -0.176910
v -1.833660 8.603584 1.370228
v -0.283622 8.603584 2.012275
v 1.266416 8.603584 1.370228
v 1.928890 8.625044 -0.178015
v -0.271712 8.810427 -1.291434
v 0.511644 8.636087 -0.948357
v -1.086280 8.888504 -0.978648
v -1.469970 9.074092 -0.179810
v -1.122497 9.074092 0.659065
v -0.283622 9.074092 1.006538
v 0.555252 9.074092 0.659065
v 0.813109 8.668300 -0.156398
v -0.283622 9.002887 -0.179810
vt 0.000000 0.007316
vt 0.125000 0.007316
vt 0.125000 0.148426
vt 0.000000 0.148426
vt 0.250000 0.007316
vt 0.250000 0.148426
vt 0.375000 0.007316
vt 0.375000 0.148426
vt 0.500000 0.007316
vt 0.500000 0.148426
vt 0.625000 0.007316
vt 0.625000 0.148426
vt 0.750000 0.007316
vt 0.750000 0.148426
vt 0.875000 0.007316
vt 0.875000 0.148426
vt 1.000000 0.007316
vt 1.000000 0.148426
vt 0.125000 0.289537
vt 0.000000 0.289537
vt 0.250000 0.289537
vt 0.375000 0.289537
vt 0.500000 0.289537
vt 0.625000 0.289537
vt 0.750000 0.289537
vt 0.875000 0.289537
vt 1.000000 0.289537
vt 0.125000 0.430647
vt 0.000000 0.430647
vt 0.250000 0.430647
vt 0.375000 0.430647
vt 0.500000 0.430647
vt 0.625000 0.430647
vt 0.750000 0.430647
vt 0.875000 0.430647
vt 1.000000 0.430647
vt 0.125000 0.571758
vt 0.000000 0.571758
vt 0.250000 0.571758
vt 0.375000 0.571758
vt 0.500000 0.571758
vt 0.625000 0.571758
vt 0.750000 0.571758
vt 0.875000 0.571758
vt 1.000000 0.571758
vt 0.125000 0.712868
vt 0.000000 0.712868
vt 0.250000 0.712868
vt 0.375000 0.712868
vt 0.500000 0.712868
vt 0.625000 0.712868
vt 0.750000 0.712868
vt 0.875000 0.712868
vt 1.000000 0.712868
vt 0.125000 0.853979
vt 0.000000 0.853979
vt 0.250000 0.853979
vt 0.375000 0.853979
vt 0.500000 0.853979
vt 0.625000 0.853979
vt 0.750000 0.853979
vt 0.875000 0.853979
vt 1.000000 0.853979
vt 0.062500 0.995089
vt 0.187500 0.995089
vt 0.312500 0.995089
vt 0.437500 0.995089
vt 0.562500 0.995089
vt 0.687500 0.995089
vt 0.812500 0.995089
vt 0.937500 0.995089
vn 0.249560 -0.952986 -0.171866
vn 0.035529 -0.984999 -0.168864
vn 0.037213 -0.829035 -0.557957
vn 0.443161 -0.796304 -0.411714
vn -0.203037 -0.964041 -0.171466
vn -0.421610 -0.818989 -0.389232
vn -0.276905 -0.960897 0.000000
vn -0.571229 -0.820791 0.000000
vn -0.111693 -0.962797 0.246063
vn -0.358596 -0.843296 0.400325
vn 0.139047 -0.921280 0.363193
vn 0.096230 -0.860076 0.501007
vn 0.235695 -0.897324 0.373173
vn 0.383525 -0.821636 0.421690
vn 0.281735 -0.951662 0.122332
vn 0.537438 -0.840889 0.063762
vn 0.023224 -0.495245 -0.868443
vn 0.584631 -0.529179 -0.614960
vn -0.602058 -0.499000 -0.623318
vn -0.859385 -0.511330 0.000000
vn -0.599830 -0.523658 0.604968
vn 0.047938 -0.573415 0.817862
vn 0.572461 -0.573436 0.586054
vn 0.800238 -0.599120 0.025962
vn -0.007060 0.086844 -0.996197
vn 0.675396 -0.010833 -0.737376
vn -0.681516 0.165276 -0.712896
vn -0.996113 0.085107 -0.022726
vn -0.707107 0.000000 0.707107
vn 0.037930 -0.007889 0.999249
vn 0.692482 -0.033949 0.720636
vn 0.998740 -0.044351 0.023466
vn -0.039412 0.527820 -0.848441
vn 0.568851 0.516257 -0.640224
vn -0.593303 0.510660 -0.622268
vn -0.842030 0.535799 -0.062491
vn -0.605595 0.520908 0.601589
vn 0.021716 0.485609 0.873907
vn 0.610941 0.455912 0.647221
vn 0.853481 0.521118 -0.002294
vn -0.008142 0.853342 -0.521288
vn 0.269963 0.905111 -0.328472
vn -0.402377 0.793452 -0.456647
vn -0.587216 0.807947 -0.048983
vn -0.410485 0.822035 0.394666
vn 0.004579 0.817681 0.575653
vn 0.370919 0.856959 0.357826
vn 0.417590 0.908088 -0.031534
vn 0.089842 0.975782 -0.199442
vn 0.170551 0.977435 -0.124630
vn -0.072123 0.972542 -0.221270
vn -0.167234 0.983380 -0.070683
vn -0.131260 0.984036 0.120180
vn 0.000000 0.984727 0.174103
vn 0.183691 0.982901 -0.012771
vn 0.221184 0.964555 -0.143914
vn 0.123103 0.981492 -0.146694
s 1
g pSphere1
usemtl lambert2SG
f 70/70/232 71/71/233 72/72/234 73/73/235
f 71/71/233 74/74/236 75/75/237 72/72/234
f 74/74/236 76/76/238 77/77/239 75/75/237
f 76/76/238 78/78/240 79/79/241 77/77/239
f 78/78/240 80/80/242 81/81/243 79/79/241
f 80/80/242 82/82/244 83/83/245 81/81/243
f 82/82/244 84/84/246 85/85/247 83/83/245
f 84/84/246 70/86/232 73/87/235 85/85/247
f 73/73/235 72/72/234 86/88/248 87/89/249
f 72/72/234 75/75/237 88/90/250 86/88/248
f 75/75/237 77/77/239 89/91/251 88/90/250
f 77/77/239 79/79/241 90/92/252 89/91/251
f 79/79/241 81/81/243 91/93/253 90/92/252
f 81/81/243 83/83/245 92/94/254 91/93/253
f 83/83/245 85/85/247 93/95/255 92/94/254
f 85/85/247 73/87/235 87/96/249 93/95/255
f 87/89/249 86/88/248 94/97/256 95/98/257
f 86/88/248 88/90/250 96/99/258 94/97/256
f 88/90/250 89/91/251 97/100/259 96/99/258
f 89/91/251 90/92/252 98/101/260 97/100/259
f 90/92/252 91/93/253 99/102/261 98/101/260
f 91/93/253 92/94/254 100/103/262 99/102/261
f 92/94/254 93/95/255 101/104/263 100/103/262
f 93/95/255 87/96/249 95/105/257 101/104/263
f 95/98/257 94/97/256 102/106/264 103/107/265
f 94/97/256 96/99/258 104/108/266 102/106/264
f 96/99/258 97/100/259 105/109/267 104/108/266
f 97/100/259 98/101/260 106/110/268 105/109/267
f 98/101/260 99/102/261 107/111/269 106/110/268
f 99/102/261 100/103/262 108/112/270 107/111/269
f 100/103/262 101/104/263 109/113/271 108/112/270
f 101/104/263 95/105/257 103/114/265 109/113/271
f 103/107/265 102/106/264 110/115/272 111/116/273
f 102/106/264 104/108/266 112/117/274 110/115/272
f 104/108/266 105/109/267 113/118/275 112/117/274
f 105/109/267 106/110/268 114/119/276 113/118/275
f 106/110/268 107/111/269 115/120/277 114/119/276
f 107/111/269 108/112/270 116/121/278 115/120/277
f 108/112/270 109/113/271 117/122/279 116/121/278
f 109/113/271 103/114/265 111/123/273 117/122/279
f 111/116/273 110/115/272 118/124/280 119/125/281
f 110/115/272 112/117/274 120/126/282 118/124/280
f 112/117/274 113/118/275 121/127/283 120/126/282
f 113/118/275 114/119/276 122/128/284 121/127/283
f 114/119/276 115/120/277 123/129/285 122/128/284
f 115/120/277 116/121/278 124/130/286 123/129/285
f 116/121/278 117/122/279 125/131/287 124/130/286
f 117/122/279 111/123/273 119/132/281 125/131/287
f 119/125/281 118/124/280 126/133/288
f 118/124/280 120/126/282 126/134/288
f 120/126/282 121/127/283 126/135/288
f 121/127/283 122/128/284 126/136/288
f 122/128/284 123/129/285 126/137/288
f 123/129/285 124/130/286 126/138/288
f 124/130/286 125/131/287 126/139/288
f 125/131/287 119/132/281 126/140/288
