# Blender3D v2.52 (sub 0) OBJ File: vertical_sign.blend
# www.blender3d.org
o Mesh.001_Mesh
v 3.000000 -9.000000 -0.500000
v 3.000000 -9.000000 0.500000
v -3.000000 -9.000000 0.500000
v -2.999999 -9.000000 -0.500000
v 3.000001 15.000000 -0.500000
v 2.999998 15.000000 0.500000
v -3.000001 15.000000 0.499999
v -3.000000 15.000000 -0.500001
vn 0.000000 -1.000000 0.000000
vn 0.000000 1.000000 0.000000
vn 1.000000 0.000000 0.000002
vn -0.000000 0.000000 1.000000
vn -1.000000 -0.000000 -0.000001
vn 0.000000 -0.000000 -1.000000
usemtl (null)
s off
f 1//1 2//1 3//1 4//1
f 5//2 8//2 7//2 6//2
f 1//3 5//3 6//3 2//3
f 2//4 6//4 7//4 3//4
f 3//5 7//5 8//5 4//5
f 5//6 1//6 4//6 8//6
